<svg width="47" height="47" viewBox="0 0 47 47" fill="none" xmlns="http://www.w3.org/2000/svg">
<path d="M18.5947 20.2871H40.1572C40.3549 20.2871 40.5166 20.1219 40.5166 19.9199V17.3496C40.5166 17.1477 40.3549 16.9824 40.1572 16.9824H18.5947C18.3971 16.9824 18.2354 17.1477 18.2354 17.3496V19.9199C18.2354 20.1219 18.3971 20.2871 18.5947 20.2871ZM18.2354 29.6504C18.2354 29.8523 18.3971 30.0176 18.5947 30.0176H40.1572C40.3549 30.0176 40.5166 29.8523 40.5166 29.6504V27.0801C40.5166 26.8781 40.3549 26.7129 40.1572 26.7129H18.5947C18.3971 26.7129 18.2354 26.8781 18.2354 27.0801V29.6504ZM40.876 7.34375H5.65723C5.45957 7.34375 5.29785 7.50898 5.29785 7.71094V10.2812C5.29785 10.4832 5.45957 10.6484 5.65723 10.6484H40.876C41.0736 10.6484 41.2354 10.4832 41.2354 10.2812V7.71094C41.2354 7.50898 41.0736 7.34375 40.876 7.34375ZM40.876 36.3516H5.65723C5.45957 36.3516 5.29785 36.5168 5.29785 36.7188V39.2891C5.29785 39.491 5.45957 39.6562 5.65723 39.6562H40.876C41.0736 39.6562 41.2354 39.491 41.2354 39.2891V36.7188C41.2354 36.5168 41.0736 36.3516 40.876 36.3516ZM6.66348 29.4714L13.6848 23.8213C13.732 23.7833 13.7703 23.7349 13.7965 23.6796C13.8228 23.6244 13.8365 23.5637 13.8365 23.5023C13.8365 23.4409 13.8228 23.3802 13.7965 23.325C13.7703 23.2697 13.732 23.2213 13.6848 23.1833L6.66348 17.5286C6.40293 17.3175 6.0166 17.5057 6.0166 17.8453V29.1501C6.01658 29.2268 6.03767 29.3019 6.07746 29.3669C6.11725 29.4319 6.17414 29.4841 6.24161 29.5176C6.30909 29.5511 6.38444 29.5646 6.45904 29.5564C6.53364 29.5482 6.60449 29.5188 6.66348 29.4714V29.4714Z" fill="#8CF2D9"/>
</svg>
