<svg width="25" height="29" viewBox="0 0 25 29" fill="none" xmlns="http://www.w3.org/2000/svg">
<path d="M24.1655 7.99583V7.8825L24.0805 7.67C24.0509 7.62491 24.0177 7.58227 23.9813 7.5425C23.9434 7.48253 23.9008 7.42568 23.8538 7.3725L23.7263 7.27333L23.4996 7.16L12.8746 0.600835C12.6495 0.460114 12.3893 0.385498 12.1238 0.385498C11.8583 0.385498 11.5981 0.460114 11.373 0.600835L0.832969 7.16L0.705469 7.27333L0.577969 7.3725C0.531008 7.42568 0.488373 7.48253 0.450469 7.5425C0.414049 7.58227 0.380887 7.62491 0.351303 7.67L0.266302 7.8825V7.99583C0.252378 8.11822 0.252378 8.24179 0.266302 8.36417V20.7458C0.26582 20.9866 0.326703 21.2235 0.443203 21.4342C0.559703 21.6449 0.727976 21.8224 0.932136 21.95L11.5571 28.5092C11.6225 28.5496 11.6944 28.5783 11.7696 28.5942H11.883C12.1226 28.6702 12.38 28.6702 12.6196 28.5942H12.733C12.8082 28.5783 12.8801 28.5496 12.9455 28.5092L23.4996 21.95C23.7038 21.8224 23.8721 21.6449 23.9886 21.4342C24.1051 21.2235 24.1659 20.9866 24.1655 20.7458V8.36417C24.1794 8.24179 24.1794 8.11822 24.1655 7.99583ZM10.7496 24.7692L2.95797 19.9525V10.9142L10.7496 15.7167V24.7692ZM12.1663 13.2658L4.23297 8.36417L12.1663 3.47667L20.0996 8.36417L12.1663 13.2658ZM21.3746 19.9525L13.583 24.7692V15.7167L21.3746 10.9142V19.9525Z" fill="#201E2B"/>
</svg>
