<svg width="51" height="47" viewBox="0 0 51 47">
   <path d="M42.5841 14.719V14.5656L42.4625 14.2779C42.4202 14.2169 42.3728 14.1592 42.3208 14.1053C42.2666 14.0241 42.2056 13.9472 42.1385 13.8752L41.9562 13.7409L41.6321 13.5875L26.4417 4.70778C26.1198 4.51727 25.7479 4.41626 25.3683 4.41626C24.9887 4.41626 24.6167 4.51727 24.2948 4.70778L9.22596 13.5875L9.04368 13.7409L8.86139 13.8752C8.79425 13.9472 8.7333 14.0241 8.67911 14.1053C8.62704 14.1592 8.57963 14.2169 8.53733 14.2779L8.41581 14.5656V14.719C8.3959 14.8847 8.3959 15.052 8.41581 15.2177V31.9798C8.41512 32.3057 8.50216 32.6264 8.66872 32.9117C8.83528 33.1969 9.07586 33.4372 9.36774 33.61L24.5581 42.4897C24.6516 42.5444 24.7544 42.5833 24.8619 42.6048H25.024C25.3666 42.7077 25.7345 42.7077 26.0772 42.6048H26.2392C26.3467 42.5833 26.4495 42.5444 26.543 42.4897L41.6321 33.61C41.924 33.4372 42.1646 33.1969 42.3311 32.9117C42.4977 32.6264 42.5847 32.3057 42.5841 31.9798V15.2177C42.604 15.052 42.604 14.8847 42.5841 14.719V14.719ZM23.4037 37.4265L12.264 30.9058V18.6698L23.4037 25.1714V37.4265ZM25.429 21.8535L14.0869 15.2177L25.429 8.60104L36.7712 15.2177L25.429 21.8535ZM38.594 30.9058L27.4544 37.4265V25.1714L38.594 18.6698V30.9058Z" />
</svg>
