<svg width="51" height="47" viewBox="0 0 51 47" >
<path d="M39.3752 16.2411C39.6235 15.3563 39.6773 14.4269 39.5329 13.5187C39.3884 12.6104 39.0492 11.7455 38.5392 10.9851C38.0292 10.2247 37.3609 9.58732 36.5816 9.11815C35.8023 8.64897 34.9309 8.35941 34.0292 8.26996C33.6674 7.21577 32.9918 6.30187 32.096 5.65475C31.2002 5.00763 30.1284 4.65929 29.0291 4.65796C27.7227 4.66245 26.4648 5.16064 25.5004 6.05546C24.536 5.16064 23.278 4.66245 21.9717 4.65796C19.6763 4.65796 17.7196 6.14683 16.9874 8.26817C16.0841 8.35538 15.2108 8.64338 14.4294 9.11173C13.648 9.58009 12.9777 10.2173 12.466 10.9782C11.9543 11.7391 11.6137 12.6051 11.4685 13.5146C11.3232 14.4241 11.3769 15.355 11.6256 16.2411C10.4929 16.853 9.54453 17.7649 8.88102 18.88C8.21751 19.9951 7.86363 21.2718 7.85693 22.5746C7.85693 24.5007 8.61207 26.312 9.92475 27.6486C9.7239 28.3275 9.62166 29.0325 9.62128 29.7413C9.62128 33.2476 12.1125 36.1734 15.4542 36.7897C15.9448 37.8907 16.7369 38.8252 17.7362 39.4815C18.7354 40.1379 19.8995 40.4884 21.0895 40.4913C22.8168 40.4913 24.3783 39.7621 25.5004 38.5939C26.0731 39.1939 26.7586 39.671 27.5163 39.9969C28.274 40.3228 29.0884 40.4909 29.9113 40.4913C31.0992 40.4891 32.2614 40.1399 33.2593 39.4855C34.2573 38.8311 35.0488 37.899 35.5395 36.8005C36.5239 36.6242 37.4604 36.2379 38.2869 35.6671C39.1135 35.0963 39.8115 34.3539 40.3347 33.489C40.858 32.6241 41.1946 31.6563 41.3224 30.6496C41.4501 29.6428 41.3662 28.62 41.076 27.6486C41.732 26.9823 42.2523 26.1912 42.6071 25.3206C42.9619 24.4499 43.1443 23.5169 43.1438 22.5746C43.1371 21.2718 42.7833 19.9951 42.1198 18.88C41.4562 17.7649 40.5079 16.853 39.3752 16.2411ZM21.0895 36.908C19.8351 36.908 18.7429 36.005 18.4959 34.7615L18.1219 33.3246H16.6787C14.7326 33.3246 13.15 31.7175 13.15 29.7413C13.15 29.1106 13.2999 28.5194 13.5963 27.9837L14.4009 26.5217L13.0176 25.6079C12.518 25.2808 12.1068 24.8318 11.8218 24.302C11.5367 23.7722 11.3868 23.1784 11.3856 22.5746C11.3856 20.8242 12.6612 19.3066 14.3533 19.0415L17.3403 18.5756L15.4718 16.164C15.1391 15.7284 14.9461 15.1996 14.919 14.649C14.892 14.0984 15.032 13.5526 15.3204 13.0855C15.6087 12.6183 16.0313 12.2524 16.5311 12.0372C17.0309 11.8219 17.5837 11.7677 18.1148 11.882L20.2074 12.1955V10.033C20.2074 9.55778 20.3932 9.10206 20.7241 8.76606C21.055 8.43006 21.5038 8.24129 21.9717 8.24129C22.4396 8.24129 22.8884 8.43006 23.2193 8.76606C23.5502 9.10206 23.736 9.55778 23.736 10.033V34.2205C23.736 35.7022 22.5486 36.908 21.0895 36.908ZM37.9831 25.6061L36.5999 26.5199L37.4044 27.9819C37.7008 28.5194 37.8508 29.1106 37.8508 29.7413C37.8508 31.7175 36.2682 33.3246 34.2339 33.3246H32.7907L32.5048 34.7615C32.3815 35.3676 32.0562 35.912 31.5838 36.3029C31.1114 36.6939 30.5207 36.9076 29.9113 36.908C28.4521 36.908 27.2647 35.7022 27.2647 34.2205V10.033C27.2647 9.04396 28.0552 8.24129 29.0291 8.24129C30.003 8.24129 30.7934 9.04396 30.7934 10.1225V12.2851L32.8859 11.882C33.417 11.7677 33.9699 11.8219 34.4697 12.0372C34.9695 12.2524 35.3921 12.6183 35.6804 13.0855C35.9687 13.5526 36.1088 14.0984 36.0817 14.649C36.0546 15.1996 35.8617 15.7284 35.5289 16.164L33.6605 18.5774L36.6475 19.0433C37.4741 19.1792 38.2263 19.6088 38.7698 20.2557C39.3134 20.9025 39.613 21.7243 39.6152 22.5746C39.6152 23.7983 39.0047 24.9307 37.9831 25.6061Z" />
</svg>
