<svg width="26" height="27" viewBox="0 0 26 27" fill="none" xmlns="http://www.w3.org/2000/svg">
<path d="M23.2743 8.93388C23.4503 8.296 23.4884 7.62598 23.386 6.9712C23.2837 6.31641 23.0434 5.69287 22.682 5.14466C22.3207 4.59645 21.8473 4.13698 21.2951 3.79874C20.743 3.46049 20.1257 3.25174 19.4868 3.18725C19.2305 2.42726 18.7519 1.7684 18.1172 1.30187C17.4825 0.835338 16.7232 0.584213 15.9443 0.583252C15.0188 0.586491 14.1276 0.945648 13.4443 1.59075C12.7611 0.945648 11.8699 0.586491 10.9443 0.583252C9.31809 0.583252 7.93184 1.65663 7.41309 3.18596C6.77313 3.24884 6.1544 3.45646 5.60079 3.79411C5.04719 4.13176 4.57227 4.59116 4.20973 5.13972C3.8472 5.68828 3.60592 6.31256 3.50302 6.96826C3.40013 7.62397 3.43813 8.29505 3.61434 8.93388C2.81188 9.37505 2.13996 10.0325 1.66988 10.8364C1.1998 11.6403 0.949081 12.5607 0.944336 13.4999C0.944336 14.8885 1.47934 16.1943 2.40934 17.1579C2.26704 17.6473 2.19461 18.1556 2.19434 18.6666C2.19434 21.1944 3.95934 23.3037 6.32684 23.748C6.6744 24.5418 7.23563 25.2154 7.94356 25.6886C8.65149 26.1618 9.47622 26.4145 10.3193 26.4166C11.5431 26.4166 12.6493 25.8909 13.4443 25.0487C13.8501 25.4812 14.3358 25.8252 14.8726 26.0602C15.4094 26.2951 15.9864 26.4163 16.5693 26.4166C17.411 26.415 18.2344 26.1633 18.9414 25.6915C19.6484 25.2197 20.2092 24.5477 20.5568 23.7558C21.2543 23.6287 21.9177 23.3502 22.5033 22.9387C23.0889 22.5272 23.5834 21.992 23.9541 21.3684C24.3248 20.7449 24.5633 20.0472 24.6539 19.3214C24.7444 18.5956 24.6849 17.8582 24.4793 17.1579C24.9441 16.6775 25.3127 16.1072 25.5641 15.4795C25.8154 14.8519 25.9447 14.1792 25.9443 13.4999C25.9396 12.5607 25.6889 11.6403 25.2188 10.8364C24.7487 10.0325 24.0768 9.37505 23.2743 8.93388ZM10.3193 23.8333C9.43059 23.8333 8.65684 23.1823 8.48184 22.2858L8.21684 21.2499H7.19434C5.81559 21.2499 4.69434 20.0913 4.69434 18.6666C4.69434 18.2119 4.80059 17.7857 5.01059 17.3995L5.58059 16.3455L4.60059 15.6867C4.24657 15.4509 3.9553 15.1272 3.75334 14.7453C3.55138 14.3633 3.44515 13.9352 3.44434 13.4999C3.44434 12.238 4.34809 11.1439 5.54684 10.9528L7.66309 10.6169L6.33934 8.87834C6.1036 8.56429 5.96689 8.18302 5.94769 7.78607C5.92849 7.38912 6.02774 6.99566 6.232 6.6589C6.43627 6.32213 6.7357 6.05832 7.08979 5.90315C7.44389 5.74797 7.83556 5.70891 8.21184 5.79125L9.69434 6.01729V4.45825C9.69434 4.11568 9.82603 3.78714 10.0605 3.54491C10.2949 3.30267 10.6128 3.16659 10.9443 3.16659C11.2759 3.16659 11.5938 3.30267 11.8282 3.54491C12.0626 3.78714 12.1943 4.11568 12.1943 4.45825V21.8958C12.1943 22.964 11.3531 23.8333 10.3193 23.8333ZM22.2881 15.6854L21.3081 16.3442L21.8781 17.3982C22.0881 17.7857 22.1943 18.2119 22.1943 18.6666C22.1943 20.0913 21.0731 21.2499 19.6318 21.2499H18.6093L18.4068 22.2858C18.3194 22.7228 18.089 23.1152 17.7543 23.3971C17.4196 23.6789 17.0011 23.833 16.5693 23.8333C15.5356 23.8333 14.6943 22.964 14.6943 21.8958V4.45825C14.6943 3.74525 15.2543 3.16659 15.9443 3.16659C16.6343 3.16659 17.1943 3.74525 17.1943 4.52284V6.08188L18.6768 5.79125C19.0531 5.70891 19.4448 5.74797 19.7989 5.90315C20.153 6.05832 20.4524 6.32213 20.6567 6.6589C20.8609 6.99566 20.9602 7.38912 20.941 7.78607C20.9218 8.18302 20.7851 8.56429 20.5493 8.87834L19.2256 10.6182L21.3418 10.954C21.9275 11.052 22.4603 11.3618 22.8454 11.8281C23.2305 12.2944 23.4428 12.8869 23.4443 13.4999C23.4443 14.3821 23.0118 15.1985 22.2881 15.6854Z" fill="#201E2B"/>
</svg>
