<svg width="24" height="27" viewBox="0 0 24 27" fill="none" xmlns="http://www.w3.org/2000/svg">
<path d="M24 4.09466V6.41608C24 8.46185 18.625 10.1304 12 10.1304C5.37498 10.1304 0 8.46185 0 6.41608V4.09466C0 2.04889 5.37498 0.380371 12 0.380371C18.625 0.380371 24 2.04889 24 4.09466ZM24 9.31787V14.5411C24 16.5869 18.625 18.2554 12 18.2554C5.37498 18.2554 0 16.5869 0 14.5411V9.31787C2.57812 11.0009 7.29686 11.7844 12 11.7844C16.7031 11.7844 21.4218 11.0009 24 9.31787ZM24 17.4429V22.6661C24 24.7119 18.625 26.3804 12 26.3804C5.37498 26.3804 0 24.7119 0 22.6661V17.4429C2.57812 19.1259 7.29686 19.9094 12 19.9094C16.7031 19.9094 21.4218 19.1259 24 17.4429Z" fill="white"/>
</svg>
