<svg width="52" height="47" viewBox="0 0 52 47">
   <path d="M41.1239 12.6375V15.3161C41.1239 17.6766 34.35 19.6018 26.0009 19.6018C17.6517 19.6018 10.8779 17.6766 10.8779 15.3161V12.6375C10.8779 10.277 17.6517 8.35181 26.0009 8.35181C34.35 8.35181 41.1239 10.277 41.1239 12.6375ZM41.1239 18.6643V24.6911C41.1239 27.0516 34.35 28.9768 26.0009 28.9768C17.6517 28.9768 10.8779 27.0516 10.8779 24.6911V18.6643C14.127 20.6063 20.0738 21.5103 26.0009 21.5103C31.928 21.5103 37.8747 20.6063 41.1239 18.6643ZM41.1239 28.0393V34.0661C41.1239 36.4266 34.35 38.3518 26.0009 38.3518C17.6517 38.3518 10.8779 36.4266 10.8779 34.0661V28.0393C14.127 29.9813 20.0738 30.8853 26.0009 30.8853C31.928 30.8853 37.8747 29.9813 41.1239 28.0393Z" />
</svg>
