<svg width="51" height="48" viewBox="0 0 51 48">
   <path d="M31.3443 23.2244L33.4547 25.446L30.8248 28.2146C30.63 28.4197 30.63 28.6248 30.8248 28.8298L31.3767 29.4109C31.5716 29.616 31.7664 29.616 31.9612 29.4109L34.5911 26.6423L38.6497 30.9148L36.0198 33.6833C35.825 33.8884 35.825 34.0821 36.0198 34.2644L36.5717 34.8796C36.7665 35.0847 36.9614 35.0847 37.1562 34.8796L39.7861 32.1111L41.8317 34.2644C42.0265 34.4695 42.1239 34.7201 42.1239 35.0164C42.1239 35.3126 42.0265 35.5746 41.8317 35.8025L36.6367 41.2712C36.4202 41.4763 36.1713 41.5789 35.8899 41.5789C35.6085 41.5789 35.3704 41.4763 35.1756 41.2712L24.6882 30.2312L18.5841 36.657C18.2378 37.0216 17.8157 37.2039 17.3178 37.2039C16.82 37.2039 16.3979 37.0216 16.0515 36.657L13.5839 34.0251C13.2376 33.6606 13.0644 33.2219 13.0644 32.7092C13.0644 32.1965 13.2376 31.7579 13.5839 31.3933L19.688 24.9675L9.16819 13.8933C8.97338 13.6882 8.87598 13.4376 8.87598 13.1414C8.87598 12.8451 8.97338 12.5945 9.16819 12.3894L14.3632 6.88647C14.5796 6.6814 14.8286 6.57886 15.11 6.57886C15.3914 6.57886 15.6295 6.6814 15.8243 6.88647L17.8698 9.03979L15.2398 11.8083C15.045 12.0134 15.045 12.2185 15.2398 12.4236L15.7918 13.0046C15.9866 13.2097 16.1814 13.2097 16.3762 13.0046L19.0062 10.2361L23.0648 14.5085L20.4348 17.2771C20.24 17.4822 20.24 17.6873 20.4348 17.8923L20.9868 18.4734C21.1816 18.6785 21.3764 18.6785 21.5712 18.4734L24.2012 15.7048L26.3116 17.9607L36.6042 7.12573C36.9505 6.76115 37.3672 6.57886 37.8542 6.57886C38.3413 6.57886 38.758 6.76115 39.1043 7.12573L41.6044 9.75757C41.9507 10.1222 42.1239 10.5608 42.1239 11.0735C42.1239 11.5862 41.9507 12.0248 41.6044 12.3894L31.3443 23.2244ZM11.0189 34.196C11.0622 34.3783 11.138 34.5264 11.2462 34.6404L15.4671 39.0837C15.5753 39.1977 15.716 39.2774 15.8892 39.323C15.781 39.5509 15.6944 39.6876 15.6295 39.7332L9.91497 41.5789C9.39547 41.5789 9.09243 41.5333 9.00585 41.4421C8.91927 41.351 8.87598 41.032 8.87598 40.4851L10.6293 34.4695C10.6726 34.4239 10.8024 34.3328 11.0189 34.196Z" />
</svg>
