<svg width="24" height="26" viewBox="0 0 24 26" fill="none" xmlns="http://www.w3.org/2000/svg">
<path d="M15.9551 11.9172L17.4136 13.5042L15.596 15.4817C15.4614 15.6282 15.4614 15.7747 15.596 15.9211L15.9775 16.3362C16.1121 16.4827 16.2468 16.4827 16.3814 16.3362L18.199 14.3586L21.0038 17.4104L19.1863 19.3879C19.0516 19.5344 19.0516 19.6728 19.1863 19.803L19.5677 20.2424C19.7024 20.3889 19.837 20.3889 19.9716 20.2424L21.7892 18.2649L23.2029 19.803C23.3375 19.9495 23.4048 20.1285 23.4048 20.3401C23.4048 20.5517 23.3375 20.7389 23.2029 20.9016L19.6126 24.8079C19.463 24.9543 19.291 25.0276 19.0965 25.0276C18.902 25.0276 18.7375 24.9543 18.6029 24.8079L11.3551 16.9221L7.13652 21.512C6.89717 21.7724 6.60546 21.9026 6.26139 21.9026C5.91733 21.9026 5.62562 21.7724 5.38627 21.512L3.68091 19.6321C3.44156 19.3717 3.32188 19.0583 3.32188 18.6921C3.32188 18.3259 3.44156 18.0126 3.68091 17.7522L7.89944 13.1624L0.629197 5.2522C0.494563 5.10571 0.427246 4.92668 0.427246 4.71509C0.427246 4.5035 0.494563 4.32446 0.629197 4.17798L4.21944 0.247314C4.36904 0.10083 4.54107 0.0275879 4.73554 0.0275879C4.93001 0.0275879 5.09456 0.10083 5.2292 0.247314L6.64286 1.7854L4.8253 3.76294C4.69066 3.90942 4.69066 4.05591 4.8253 4.20239L5.20676 4.61743C5.34139 4.76392 5.47603 4.76392 5.61066 4.61743L7.42822 2.63989L10.2331 5.69165L8.41554 7.66919C8.28091 7.81567 8.28091 7.96216 8.41554 8.10864L8.797 8.52368C8.93164 8.67017 9.06627 8.67017 9.20091 8.52368L11.0185 6.54614L12.477 8.15747L19.5902 0.418213C19.8295 0.157796 20.1175 0.0275879 20.4541 0.0275879C20.7907 0.0275879 21.0786 0.157796 21.318 0.418213L23.0458 2.2981C23.2851 2.55851 23.4048 2.87183 23.4048 3.23804C23.4048 3.60425 23.2851 3.91756 23.0458 4.17798L15.9551 11.9172ZM1.90822 19.7542C1.93814 19.8844 1.9905 19.9902 2.0653 20.0715L4.98237 23.2454C5.05717 23.3267 5.1544 23.3837 5.27408 23.4163C5.19928 23.579 5.13944 23.6767 5.09456 23.7092L1.14529 25.0276C0.786271 25.0276 0.57684 24.995 0.517002 24.9299C0.457165 24.8648 0.427246 24.637 0.427246 24.2463L1.63895 19.9495C1.66887 19.9169 1.75863 19.8518 1.90822 19.7542Z" fill="#201E2B"/>
</svg>
