<svg width="26" height="27" viewBox="0 0 26 27" fill="none" xmlns="http://www.w3.org/2000/svg">
<path d="M12.7876 0.24292C5.83057 0.24292 0.193848 6.09644 0.193848 13.321C0.193848 20.5457 5.83057 26.3992 12.7876 26.3992C19.7446 26.3992 25.3813 20.5457 25.3813 13.321C25.3813 6.09644 19.7446 0.24292 12.7876 0.24292ZM17.4844 16.7488L16.4687 18.0671C16.4021 18.1537 16.3197 18.2257 16.2262 18.2792C16.1327 18.3326 16.03 18.3665 15.924 18.3787C15.8179 18.3909 15.7106 18.3814 15.6081 18.3505C15.5056 18.3197 15.41 18.2682 15.3267 18.199L11.9243 15.577C11.6866 15.3794 11.4947 15.1287 11.3628 14.8437C11.231 14.5586 11.1626 14.2464 11.1626 13.9301V5.72729C11.1626 5.50352 11.2482 5.28891 11.4006 5.13067C11.5529 4.97244 11.7596 4.88354 11.9751 4.88354H13.6001C13.8156 4.88354 14.0222 4.97244 14.1746 5.13067C14.327 5.28891 14.4126 5.50352 14.4126 5.72729V13.321L17.3579 15.5623C17.4413 15.6315 17.5107 15.7172 17.5622 15.8143C17.6136 15.9114 17.6462 16.0181 17.6579 16.1283C17.6697 16.2385 17.6604 16.35 17.6306 16.4565C17.6008 16.5629 17.5511 16.6623 17.4844 16.7488Z" fill="#201E2B"/>
</svg>
