<svg width="51" height="47" viewBox="0 0 51 47">
   <path d="M25.5002 4.32886C15.7014 4.32886 7.76221 12.4203 7.76221 22.407C7.76221 32.3937 15.7014 40.4851 25.5002 40.4851C35.299 40.4851 43.2382 32.3937 43.2382 22.407C43.2382 12.4203 35.299 4.32886 25.5002 4.32886ZM32.1154 27.1452L30.685 28.9676C30.5911 29.0872 30.475 29.1868 30.3434 29.2607C30.2117 29.3346 30.0671 29.3813 29.9177 29.3983C29.7683 29.4152 29.6172 29.402 29.4728 29.3593C29.3284 29.3167 29.1937 29.2455 29.0764 29.1498L24.2843 25.5255C23.9494 25.2522 23.6792 24.9058 23.4935 24.5117C23.3077 24.1177 23.2114 23.6861 23.2114 23.2489V11.91C23.2114 11.6007 23.332 11.304 23.5466 11.0853C23.7612 10.8666 24.0523 10.7437 24.3558 10.7437H26.6446C26.9481 10.7437 27.2392 10.8666 27.4538 11.0853C27.6684 11.304 27.789 11.6007 27.789 11.91V22.407L31.9373 25.505C32.0548 25.6008 32.1525 25.7192 32.225 25.8534C32.2975 25.9877 32.3434 26.1352 32.3599 26.2875C32.3764 26.4398 32.3634 26.594 32.3214 26.7411C32.2795 26.8883 32.2095 27.0256 32.1154 27.1452Z" />
</svg>
