<svg width="27" height="30" viewBox="0 0 27 30" fill="none" xmlns="http://www.w3.org/2000/svg">
<path d="M25.0714 1.875H1.92254C0.86183 1.875 0 2.72461 0 3.76758V26.2324C0 27.2754 0.86183 28.125 1.92254 28.125H25.0714C26.1321 28.125 27 27.2754 27 26.2324V3.76758C27 2.72461 26.1321 1.875 25.0714 1.875ZM8.16027 24.375H4.15848V11.8477H8.16629V24.375H8.16027ZM6.15937 10.1367C4.87567 10.1367 3.83906 9.12305 3.83906 7.88086C3.83906 6.63867 4.87567 5.625 6.15937 5.625C7.43705 5.625 8.47969 6.63867 8.47969 7.88086C8.47969 9.12891 7.44308 10.1367 6.15937 10.1367V10.1367ZM23.1609 24.375H19.1592V18.2812C19.1592 16.8281 19.129 14.959 17.0799 14.959C14.9946 14.959 14.6752 16.541 14.6752 18.1758V24.375H10.6734V11.8477H14.5125V13.5586H14.5667C15.1031 12.5742 16.4109 11.5371 18.3576 11.5371C22.4076 11.5371 23.1609 14.1328 23.1609 17.5078V24.375V24.375Z" fill="#8CF2D9"/>
</svg>
