<svg width="28" height="22" viewBox="0 0 28 22" fill="none" xmlns="http://www.w3.org/2000/svg">
<path d="M14.0104 15.5039C14.0104 15.6235 14.1283 15.7213 14.2704 15.7213H20.6861C20.8283 15.7213 20.9462 15.6235 20.9462 15.5039V14.1992C20.9462 14.0796 20.8283 13.9817 20.6861 13.9817H14.2704C14.1283 13.9817 14.0104 14.0796 14.0104 14.1992V15.5039ZM7.2514 15.6697L13.9098 11.2935C14.0416 11.2066 14.0416 11.0462 13.9098 10.9592L7.2514 6.58581C7.2112 6.55901 7.16204 6.54183 7.10976 6.53628C7.05747 6.53074 7.00425 6.53707 6.95642 6.55453C6.90859 6.57199 6.86815 6.59983 6.83991 6.63477C6.81167 6.6697 6.79681 6.71025 6.7971 6.75161V8.45585C6.7971 8.52109 6.83178 8.58088 6.89767 8.62166L10.7054 11.1277L6.89767 13.6338C6.86667 13.6542 6.84164 13.6795 6.82429 13.7081C6.80693 13.7367 6.79766 13.7679 6.7971 13.7996V15.5039C6.7971 15.6887 7.07107 15.7893 7.2514 15.6697ZM26.6335 0.255371H1.10973C0.495911 0.255371 0 0.644058 0 1.12516V21.1303C0 21.6114 0.495911 22.0001 1.10973 22.0001H26.6335C27.2474 22.0001 27.7433 21.6114 27.7433 21.1303V1.12516C27.7433 0.644058 27.2474 0.255371 26.6335 0.255371ZM25.2464 20.0431H2.49689V2.2124H25.2464V20.0431Z" fill="#8CF2D9"/>
</svg>
