<svg width="36" height="24" viewBox="0 0 36 24" fill="none" xmlns="http://www.w3.org/2000/svg">
<path d="M24.063 10.2857C26.6819 10.2857 28.7801 7.98857 28.7801 5.14286C28.7801 2.29714 26.6819 0 24.063 0C21.4441 0 19.3301 2.29714 19.3301 5.14286C19.3301 7.98857 21.4441 10.2857 24.063 10.2857ZM11.4419 10.2857C14.0608 10.2857 16.159 7.98857 16.159 5.14286C16.159 2.29714 14.0608 0 11.4419 0C8.82302 0 6.70899 2.29714 6.70899 5.14286C6.70899 7.98857 8.82302 10.2857 11.4419 10.2857ZM11.4419 13.7143C7.76601 13.7143 0.398438 15.72 0.398438 19.7143V24H22.4854V19.7143C22.4854 15.72 15.1178 13.7143 11.4419 13.7143ZM24.063 13.7143C23.6055 13.7143 23.0849 13.7486 22.5327 13.8C24.3628 15.24 25.6406 17.1771 25.6406 19.7143V24H35.1065V19.7143C35.1065 15.72 27.7389 13.7143 24.063 13.7143Z" fill="#E59999"/>
</svg>
