# This file uses centimeters as units for non-parametric coordinates.

g default
v -2.323497 0.712434 -1.480105
v -2.943359 -0.904785 -1.499457
v -1.598802 -0.504777 -0.483504
v -3.547390 0.232376 0.328660
vt 0.375000 0.033494
vt 0.375000 0.466506
vt 0.750000 0.250000
vt 0.250000 0.500000
vt 0.416667 0.500000
vt 0.583333 0.500000
vt 0.750000 0.500000
vt 0.500000 1.000000
vn 0.629418 -0.232376 -0.741508
vn 0.629418 -0.232376 -0.741508
vn 0.629418 -0.232376 -0.741508
vn -0.821813 0.320627 -0.470979
vn -0.821813 0.320627 -0.470979
vn -0.821813 0.320627 -0.470979
vn -0.118755 -0.860241 0.495866
vn -0.118755 -0.860241 0.495866
vn -0.118755 -0.860241 0.495866
vn 0.482599 0.708692 0.514640
vn 0.482599 0.708692 0.514640
vn 0.482599 0.708692 0.514640
g pCone1
f 1/1/1 3/3/2 2/2/3
f 1/4/4 2/5/5 4/8/6
f 2/5/7 3/6/8 4/8/9
f 3/6/10 1/7/11 4/8/12
g default
v -1.262757 1.297036 -0.901358
v -1.669887 1.216068 -0.451390
v -1.260727 0.778193 -0.576428
v -0.946618 1.387209 -0.182637
vt 0.375000 0.033494
vt 0.375000 0.466506
vt 0.750000 0.250000
vt 0.250000 0.500000
vt 0.416667 0.500000
vt 0.583333 0.500000
vt 0.750000 0.500000
vt 0.500000 1.000000
vn -0.638240 -0.410397 -0.651325
vn -0.638240 -0.410397 -0.651325
vn -0.638240 -0.410397 -0.651325
vn -0.221414 0.974862 -0.024918
vn -0.221414 0.974862 -0.024918
vn -0.221414 0.974862 -0.024918
vn -0.215840 -0.449245 0.866944
vn -0.215840 -0.449245 0.866944
vn -0.215840 -0.449245 0.866944
vn 0.901641 -0.227008 -0.368117
vn 0.901641 -0.227008 -0.368117
vn 0.901641 -0.227008 -0.368117
g pCone2
f 5/9/13 7/11/14 6/10/15
f 5/12/16 6/13/17 8/16/18
f 6/13/19 7/14/20 8/16/21
f 7/14/22 5/15/23 8/16/24
g default
v -2.281921 1.409434 -0.771918
v -2.587322 1.851012 -0.477775
v -2.890349 1.449457 -0.826643
v -2.664802 1.143789 -0.133584
vt 0.375000 0.033494
vt 0.375000 0.466506
vt 0.750000 0.250000
vt 0.250000 0.500000
vt 0.416667 0.500000
vt 0.583333 0.500000
vt 0.750000 0.500000
vt 0.500000 1.000000
vn 0.110724 0.602884 -0.790108
vn 0.110724 0.602884 -0.790108
vn 0.110724 0.602884 -0.790108
vn 0.807059 0.184555 0.560887
vn 0.807059 0.184555 0.560887
vn 0.807059 0.184555 0.560887
vn -0.862940 0.294409 0.410679
vn -0.862940 0.294409 0.410679
vn -0.862940 0.294409 0.410679
vn -0.024683 -0.917626 -0.396679
vn -0.024683 -0.917626 -0.396679
vn -0.024683 -0.917626 -0.396679
g pCone3
f 9/17/25 11/19/26 10/18/27
f 9/20/28 10/21/29 12/24/30
f 10/21/31 11/22/32 12/24/33
f 11/22/34 9/23/35 12/24/36
g default
v -1.706104 1.483834 -1.369458
v -1.570897 1.469663 -0.969045
v -1.317903 1.620565 -1.272417
v -1.708601 1.973439 -1.128002
vt 0.375000 0.033494
vt 0.375000 0.466506
vt 0.750000 0.250000
vt 0.250000 0.500000
vt 0.416667 0.500000
vt 0.583333 0.500000
vt 0.750000 0.500000
vt 0.500000 1.000000
vn 0.362429 -0.919048 -0.154906
vn 0.362429 -0.919048 -0.154906
vn 0.362429 -0.919048 -0.154906
vn -0.937212 -0.158091 0.310871
vn -0.937212 -0.158091 0.310871
vn -0.937212 -0.158091 0.310871
vn 0.605390 0.385242 0.696485
vn 0.605390 0.385242 0.696485
vn 0.605389 0.385242 0.696485
vn 0.068117 0.441554 -0.894645
vn 0.068117 0.441554 -0.894645
vn 0.068117 0.441554 -0.894645
g pCone4
f 13/25/37 15/27/38 14/26/39
f 13/28/40 14/29/41 16/32/42
f 14/29/43 15/30/44 16/32/45
f 15/30/46 13/31/47 16/32/48
g default
v 0.765862 0.842677 -1.369458
v 0.901068 0.828506 -0.969045
v 1.154063 0.979409 -1.272417
v 0.763365 1.332282 -1.128002
vt 0.375000 0.033494
vt 0.375000 0.466506
vt 0.750000 0.250000
vt 0.250000 0.500000
vt 0.416667 0.500000
vt 0.583333 0.500000
vt 0.750000 0.500000
vt 0.500000 1.000000
vn 0.362429 -0.919048 -0.154906
vn 0.362429 -0.919048 -0.154906
vn 0.362429 -0.919048 -0.154906
vn -0.937212 -0.158091 0.310871
vn -0.937212 -0.158091 0.310871
vn -0.937212 -0.158091 0.310871
vn 0.605390 0.385242 0.696485
vn 0.605390 0.385242 0.696485
vn 0.605389 0.385242 0.696485
vn 0.068117 0.441554 -0.894645
vn 0.068117 0.441554 -0.894645
vn 0.068117 0.441554 -0.894645
g pCone5
f 17/33/49 19/35/50 18/34/51
f 17/36/52 18/37/53 20/40/54
f 18/37/55 19/38/56 20/40/57
f 19/38/58 17/39/59 20/40/60
g default
v -0.548953 2.411727 -1.420225
v -0.003327 1.656827 -1.848769
v 0.381182 2.606295 -1.805223
v 0.429352 1.979767 -0.640236
vt 0.375000 0.033494
vt 0.375000 0.466506
vt 0.750000 0.250000
vt 0.250000 0.500000
vt 0.416667 0.500000
vt 0.583333 0.500000
vt 0.750000 0.500000
vt 0.500000 1.000000
vn -0.410829 0.207096 -0.887880
vn -0.410829 0.207096 -0.887880
vn -0.410829 0.207096 -0.887880
vn -0.618540 -0.675207 0.401875
vn -0.618540 -0.675207 0.401875
vn -0.618540 -0.675207 0.401875
vn 0.905839 -0.356334 -0.229090
vn 0.905839 -0.356334 -0.229090
vn 0.905839 -0.356334 -0.229090
vn 0.011623 0.880856 0.473242
vn 0.011623 0.880856 0.473242
vn 0.011623 0.880856 0.473242
g pCone6
f 21/41/61 23/43/62 22/42/63
f 21/44/64 22/45/65 24/48/66
f 22/45/67 23/46/68 24/48/69
f 23/46/70 21/47/71 24/48/72
g default
v -1.669877 -0.173244 -1.937080
v -1.140753 -0.684972 -2.650798
v -1.494288 0.256317 -2.851343
v -0.427862 0.265493 -2.067314
vt 0.375000 0.033494
vt 0.375000 0.466506
vt 0.750000 0.250000
vt 0.250000 0.500000
vt 0.416667 0.500000
vt 0.583333 0.500000
vt 0.750000 0.500000
vt 0.500000 1.000000
vn -0.850665 -0.393717 -0.348360
vn -0.850665 -0.393717 -0.348360
vn -0.850665 -0.393717 -0.348360
vn 0.303528 -0.653396 0.693502
vn 0.303528 -0.653396 0.693502
vn 0.303528 -0.653396 0.693502
vn 0.591296 0.050603 -0.804865
vn 0.591296 0.050603 -0.804865
vn 0.591296 0.050603 -0.804865
vn -0.275874 0.889264 0.364833
vn -0.275874 0.889264 0.364833
vn -0.275874 0.889264 0.364833
g pCone7
f 25/49/73 27/51/74 26/50/75
f 25/52/76 26/53/77 28/56/78
f 26/53/79 27/54/80 28/56/81
f 27/54/82 25/55/83 28/56/84
g default
v -2.481705 2.267828 -2.756661
v -2.026562 2.697310 -1.944490
v -2.220105 3.258910 -2.780180
v -3.302685 3.031567 -2.053277
vt 0.375000 0.033494
vt 0.375000 0.466506
vt 0.750000 0.250000
vt 0.250000 0.500000
vt 0.416667 0.500000
vt 0.583333 0.500000
vt 0.750000 0.500000
vt 0.500000 1.000000
vn 0.895250 -0.245134 -0.372072
vn 0.895250 -0.245134 -0.372072
vn 0.895250 -0.245134 -0.372072
vn -0.254309 -0.788766 0.559620
vn -0.254309 -0.788766 0.559620
vn -0.254309 -0.788766 0.559620
vn 0.174422 0.835498 0.521076
vn 0.174422 0.835498 0.521076
vn 0.174422 0.835498 0.521076
vn -0.571503 0.131629 -0.809974
vn -0.571503 0.131629 -0.809974
vn -0.571503 0.131629 -0.809974
g pCone8
f 29/57/85 31/59/86 30/58/87
f 29/60/88 30/61/89 32/64/90
f 30/61/91 31/62/92 32/64/93
f 31/62/94 29/63/95 32/64/96
g default
v 1.038111 -1.100477 -2.162148
v 1.020867 -1.476411 -0.471475
v 0.905559 0.171056 -0.993545
v -1.004884 -0.958945 -1.264294
vt 0.375000 0.033494
vt 0.375000 0.466506
vt 0.750000 0.250000
vt 0.250000 0.500000
vt 0.416667 0.500000
vt 0.583333 0.500000
vt 0.750000 0.500000
vt 0.500000 1.000000
vn 0.996531 0.078501 0.027619
vn 0.996531 0.078501 0.027619
vn 0.996531 0.078501 0.027619
vn -0.161541 -0.962988 -0.215775
vn -0.161541 -0.962988 -0.215775
vn -0.161541 -0.962988 -0.215775
vn -0.290135 0.270580 0.917937
vn -0.290135 0.270580 0.917937
vn -0.290135 0.270580 0.917937
vn -0.273407 0.635290 -0.722257
vn -0.273407 0.635290 -0.722257
vn -0.273407 0.635290 -0.722257
g pCone9
f 33/65/97 35/67/98 34/66/99
f 33/68/100 34/69/101 36/72/102
f 34/69/103 35/70/104 36/72/105
f 35/70/106 33/71/107 36/72/108
g default
v 1.481847 0.115321 -1.588573
v 1.835738 -0.120307 -1.148094
v 2.081231 0.239475 -1.578293
v 1.675224 0.645256 -1.035030
vt 0.375000 0.033494
vt 0.375000 0.466506
vt 0.750000 0.250000
vt 0.250000 0.500000
vt 0.416667 0.500000
vt 0.583333 0.500000
vt 0.750000 0.500000
vt 0.500000 1.000000
vn 0.175954 -0.802225 -0.570505
vn 0.175954 -0.802225 -0.570505
vn 0.175954 -0.802225 -0.570504
vn -0.815675 -0.248198 0.522563
vn -0.815675 -0.248198 0.522563
vn -0.815675 -0.248198 0.522563
vn 0.829501 0.092578 0.550778
vn 0.829501 0.092578 0.550778
vn 0.829502 0.092578 0.550778
vn -0.141852 0.739324 -0.658238
vn -0.141852 0.739324 -0.658238
vn -0.141852 0.739324 -0.658238
g pCone10
f 37/73/109 39/75/110 38/74/111
f 37/76/112 38/77/113 40/80/114
f 38/77/115 39/78/116 40/80/117
f 39/78/118 37/79/119 40/80/120
g default
v 0.838649 1.847345 -3.525334
v 0.331504 2.735899 -3.458199
v -0.116454 1.921367 -3.890750
v -0.077472 1.843823 -2.569948
vt 0.375000 0.033494
vt 0.375000 0.466506
vt 0.750000 0.250000
vt 0.250000 0.500000
vt 0.416667 0.500000
vt 0.583333 0.500000
vt 0.750000 0.500000
vt 0.500000 1.000000
vn 0.362109 0.273991 -0.890958
vn 0.362109 0.273991 -0.890958
vn 0.362109 0.273991 -0.890958
vn 0.678659 0.338084 0.652013
vn 0.678659 0.338084 0.652013
vn 0.678659 0.338084 0.652013
vn -0.886641 0.459396 0.053140
vn -0.886641 0.459396 0.053140
vn -0.886641 0.459396 0.053140
vn -0.055491 -0.996837 -0.056886
vn -0.055491 -0.996837 -0.056886
vn -0.055491 -0.996837 -0.056886
g pCone11
f 41/81/121 43/83/122 42/82/123
f 41/84/124 42/85/125 44/88/126
f 42/85/127 43/86/128 44/88/129
f 43/86/130 41/87/131 44/88/132
g default
v 1.217188 -1.052972 -3.379617
v 1.840646 -0.318943 -3.731375
v 1.471615 -0.263922 -2.776377
v 2.446586 -1.150751 -2.898919
vt 0.375000 0.033494
vt 0.375000 0.466506
vt 0.750000 0.250000
vt 0.250000 0.500000
vt 0.416667 0.500000
vt 0.583333 0.500000
vt 0.750000 0.500000
vt 0.500000 1.000000
vn -0.791252 0.511418 -0.335221
vn -0.791252 0.511418 -0.335221
vn -0.791252 0.511418 -0.335221
vn 0.254514 -0.585147 -0.769951
vn 0.254514 -0.585147 -0.769951
vn 0.254514 -0.585147 -0.769951
vn 0.671489 0.708011 0.218686
vn 0.671489 0.708011 0.218686
vn 0.671489 0.708010 0.218686
vn -0.350283 -0.494974 0.795174
vn -0.350283 -0.494974 0.795174
vn -0.350283 -0.494974 0.795175
g pCone12
f 45/89/133 47/91/134 46/90/135
f 45/92/136 46/93/137 48/96/138
f 46/93/139 47/94/140 48/96/141
f 47/94/142 45/95/143 48/96/144
g default
v 2.776773 1.523584 -2.702426
v 3.706295 1.698869 -2.306829
v 2.868178 2.005373 -1.802006
v 3.074474 0.701218 -1.708876
vt 0.375000 0.033494
vt 0.375000 0.466506
vt 0.750000 0.250000
vt 0.250000 0.500000
vt 0.416667 0.500000
vt 0.583333 0.500000
vt 0.750000 0.500000
vt 0.500000 1.000000
vn 0.035989 0.879620 -0.474313
vn 0.035989 0.879620 -0.474313
vn 0.035989 0.879620 -0.474313
vn 0.399195 -0.643979 -0.652637
vn 0.399195 -0.643979 -0.652637
vn 0.399195 -0.643979 -0.652637
vn 0.548997 0.145616 0.823042
vn 0.548997 0.145616 0.823042
vn 0.548997 0.145616 0.823042
vn -0.974377 -0.141655 0.174708
vn -0.974377 -0.141655 0.174708
vn -0.974377 -0.141655 0.174708
g pCone13
f 49/97/145 51/99/146 50/98/147
f 49/100/148 50/101/149 52/104/150
f 50/101/151 51/102/152 52/104/153
f 51/102/154 49/103/155 52/104/156
g default
v 3.906988 -0.069052 -2.090202
v 4.090996 0.309724 -2.051710
v 3.780781 0.253015 -2.333425
v 3.596678 0.290361 -1.820851
vt 0.375000 0.033494
vt 0.375000 0.466506
vt 0.750000 0.250000
vt 0.250000 0.500000
vt 0.416667 0.500000
vt 0.583333 0.500000
vt 0.750000 0.500000
vt 0.500000 1.000000
vn 0.674976 -0.257637 -0.691397
vn 0.674976 -0.257637 -0.691397
vn 0.674976 -0.257637 -0.691397
vn 0.414367 -0.288999 0.863006
vn 0.414367 -0.288999 0.863006
vn 0.414367 -0.288999 0.863006
vn -0.087144 0.990805 -0.103491
vn -0.087144 0.990805 -0.103491
vn -0.087144 0.990805 -0.103491
vn -0.818340 -0.514348 -0.256450
vn -0.818340 -0.514348 -0.256450
vn -0.818340 -0.514348 -0.256450
g pCone14
f 53/105/157 55/107/158 54/106/159
f 53/108/160 54/109/161 56/112/162
f 54/109/163 55/110/164 56/112/165
f 55/110/166 53/111/167 56/112/168
g default
v 1.435022 0.572104 -2.090202
v 1.619030 0.950881 -2.051710
v 1.308815 0.894171 -2.333425
v 1.124713 0.931518 -1.820851
vt 0.375000 0.033494
vt 0.375000 0.466506
vt 0.750000 0.250000
vt 0.250000 0.500000
vt 0.416667 0.500000
vt 0.583333 0.500000
vt 0.750000 0.500000
vt 0.500000 1.000000
vn 0.674976 -0.257637 -0.691397
vn 0.674976 -0.257637 -0.691397
vn 0.674976 -0.257637 -0.691397
vn 0.414367 -0.288999 0.863006
vn 0.414367 -0.288999 0.863006
vn 0.414367 -0.288999 0.863006
vn -0.087144 0.990805 -0.103491
vn -0.087144 0.990805 -0.103491
vn -0.087144 0.990805 -0.103491
vn -0.818340 -0.514348 -0.256450
vn -0.818340 -0.514348 -0.256450
vn -0.818340 -0.514348 -0.256450
g pCone15
f 57/113/169 59/115/170 58/114/171
f 57/116/172 58/117/173 60/120/174
f 58/117/175 59/118/176 60/120/177
f 59/118/178 57/119/179 60/120/180
g default
v 0.317695 0.714062 -1.675136
v -0.160108 0.401881 -1.453713
v 0.367058 0.113042 -1.569683
v 0.393024 0.543205 -0.907172
vt 0.375000 0.033494
vt 0.375000 0.466506
vt 0.750000 0.250000
vt 0.250000 0.500000
vt 0.416667 0.500000
vt 0.583333 0.500000
vt 0.750000 0.500000
vt 0.500000 1.000000
vn -0.308590 -0.188914 -0.932246
vn -0.308590 -0.188914 -0.932246
vn -0.308590 -0.188914 -0.932246
vn -0.452637 0.859973 0.235725
vn -0.452637 0.859973 0.235725
vn -0.452637 0.859973 0.235725
vn -0.317148 -0.789692 0.525171
vn -0.317148 -0.789692 0.525171
vn -0.317148 -0.789692 0.525171
vn 0.994317 0.067174 -0.082587
vn 0.994317 0.067174 -0.082587
vn 0.994317 0.067174 -0.082587
g pCone16
f 61/121/181 63/123/182 62/122/183
f 61/124/184 62/125/185 64/128/186
f 62/125/187 63/126/188 64/128/189
f 63/126/190 61/127/191 64/128/192
