<svg width="67" height="46" viewBox="0 0 67 46" fill="none" xmlns="http://www.w3.org/2000/svg">
<rect width="67" height="46" fill="#1A1929"/>
<rect x="-371" y="-627" width="1902" height="975" fill="#070609"/>
<mask id="path-2-inside-1" fill="white">
<path d="M19.3658 16.7722C19.2919 19.4161 20.4538 20.5869 20.4825 21.3305C20.4688 21.4818 20.4235 21.6272 20.3503 21.7546C20.2771 21.8819 20.1781 21.9874 20.0617 22.0624L18.748 23.1083C18.578 23.2438 18.3775 23.3215 18.1701 23.3324C18.126 23.33 17.3296 23.546 16.0682 20.343C15.2986 21.4355 14.3195 22.3133 13.2057 22.9091C12.0919 23.505 10.873 23.8031 9.64225 23.7806C7.97137 23.8845 3.44314 22.702 3.67612 17.2193C3.51293 12.7509 7.17185 9.97514 10.956 10.2098C11.6847 10.2121 13.1729 10.253 15.7788 10.9417V9.11836C16.0548 6.02973 14.27 3.63329 11.1797 3.99282C10.9334 3.99398 9.18861 3.93445 6.47496 5.17294C5.71957 5.56748 5.62309 5.50212 5.37164 5.50212C4.61112 5.50212 4.92415 2.99479 5.0699 2.67729C5.60462 1.93023 8.75036 0.535323 11.8376 0.555167C13.9018 0.347539 15.955 1.0721 17.5533 2.57223C18.203 3.39877 18.6987 4.36649 19.0104 5.41697C19.3221 6.46744 19.4434 7.57887 19.3669 8.68413L19.3658 16.7722ZM10.4962 20.5531C13.8246 20.4982 15.2338 18.222 15.555 16.9964C15.8075 15.8232 15.7654 15.0808 15.7654 13.798C14.7729 13.5272 13.3443 13.2319 11.7052 13.2295C10.1503 13.0965 7.3104 13.8867 7.42125 16.9952C7.29398 18.9551 8.56254 20.6605 10.4962 20.5531ZM28.0384 23.2437C27.2317 23.3277 26.8561 22.6764 26.737 22.0332L21.6258 2.81386C21.5263 2.48936 21.4606 2.15435 21.4288 1.81233C21.4099 1.67133 21.4411 1.52758 21.5153 1.41267C21.5896 1.29776 21.701 1.22109 21.8249 1.19951C21.8496 1.19484 21.6063 1.19951 24.1086 1.19951C25.0097 1.09679 25.3032 1.90338 25.3966 2.40998L29.0627 18.8488L32.4661 2.40998C32.5205 2.03412 32.7678 1.1178 33.7798 1.21468H35.541C35.7637 1.19367 36.6813 1.15632 36.8424 2.42516L40.2724 19.0741L44.0566 2.42516C44.1058 2.17069 44.3357 1.09795 45.358 1.21468H47.3819C47.4692 1.19951 48.0131 1.12013 47.9207 2.21621C47.8766 2.43216 48.2707 0.971888 42.5068 22.0484C42.3888 22.6915 42.0121 23.3429 41.2054 23.2588H39.2871C38.1643 23.3931 38.0032 22.1312 37.9857 22.004L34.5824 5.99704L31.218 21.9877C31.2016 22.1149 31.0405 23.3767 29.9166 23.2425H28.0384V23.2437ZM56.1069 23.9008C55.5034 23.902 52.6255 23.8658 50.2198 22.4662C49.9801 22.3508 49.776 22.1571 49.6333 21.9096C49.4906 21.6621 49.4157 21.372 49.4182 21.076V19.8212C49.4182 18.8348 50.0545 19.0158 50.3244 19.1337C51.3549 19.6076 52.0159 19.9671 53.2813 20.2542C57.0429 21.1332 58.6973 19.9858 59.1028 19.7313C60.4524 18.8197 60.5591 16.7337 59.6416 15.6516C58.566 14.6256 58.0528 14.5871 54.1886 13.2004C53.7124 13.0498 49.7035 11.6117 49.6943 7.08845C49.6317 3.79204 52.2653 0.530654 56.8294 0.557501C58.1298 0.556334 61.5947 1.03959 62.5328 2.3808C62.6713 2.62476 62.7401 2.91191 62.7298 3.20257V4.38269C62.7298 4.90096 62.5636 5.1601 62.23 5.1601C61.4387 5.05971 60.0347 3.85625 57.1845 3.90527C56.4774 3.86325 53.0904 4.01149 53.2423 6.81998C53.1982 9.03315 55.9734 9.86309 56.2906 9.9588C60.0326 11.2393 61.2837 11.4518 62.7689 13.4116C64.528 16.0088 63.5797 19.0496 63.2153 19.883C61.257 24.2592 56.1931 23.9032 56.1069 23.9008ZM60.2328 36.141C53.0453 42.1782 42.6115 45.3917 33.7028 45.3917C21.6823 45.4819 10.067 40.4549 1.14003 31.2991C0.469826 30.6116 1.061 29.6696 1.87592 30.1937C11.7785 36.6361 22.9904 40.0211 34.3987 40.0129C42.9181 39.9609 51.3445 37.9953 59.1941 34.229C60.4031 33.6453 61.4285 35.1395 60.2328 36.141ZM63.2287 32.2551C62.3091 30.9104 57.1445 31.6271 54.8321 31.9411C54.1353 32.031 54.0172 31.3434 54.6484 30.8357C58.761 27.5474 65.5153 28.4894 66.2913 29.5948C67.0661 30.7003 66.0809 38.3973 62.231 42.0743C61.6399 42.6427 61.0744 42.3428 61.3371 41.5957C62.2033 39.1152 64.1483 33.601 63.2287 32.2551Z"/>
</mask>
<path d="M19.3658 16.7722C19.2919 19.4161 20.4538 20.5869 20.4825 21.3305C20.4688 21.4818 20.4235 21.6272 20.3503 21.7546C20.2771 21.8819 20.1781 21.9874 20.0617 22.0624L18.748 23.1083C18.578 23.2438 18.3775 23.3215 18.1701 23.3324C18.126 23.33 17.3296 23.546 16.0682 20.343C15.2986 21.4355 14.3195 22.3133 13.2057 22.9091C12.0919 23.505 10.873 23.8031 9.64225 23.7806C7.97137 23.8845 3.44314 22.702 3.67612 17.2193C3.51293 12.7509 7.17185 9.97514 10.956 10.2098C11.6847 10.2121 13.1729 10.253 15.7788 10.9417V9.11836C16.0548 6.02973 14.27 3.63329 11.1797 3.99282C10.9334 3.99398 9.18861 3.93445 6.47496 5.17294C5.71957 5.56748 5.62309 5.50212 5.37164 5.50212C4.61112 5.50212 4.92415 2.99479 5.0699 2.67729C5.60462 1.93023 8.75036 0.535323 11.8376 0.555167C13.9018 0.347539 15.955 1.0721 17.5533 2.57223C18.203 3.39877 18.6987 4.36649 19.0104 5.41697C19.3221 6.46744 19.4434 7.57887 19.3669 8.68413L19.3658 16.7722ZM10.4962 20.5531C13.8246 20.4982 15.2338 18.222 15.555 16.9964C15.8075 15.8232 15.7654 15.0808 15.7654 13.798C14.7729 13.5272 13.3443 13.2319 11.7052 13.2295C10.1503 13.0965 7.3104 13.8867 7.42125 16.9952C7.29398 18.9551 8.56254 20.6605 10.4962 20.5531ZM28.0384 23.2437C27.2317 23.3277 26.8561 22.6764 26.737 22.0332L21.6258 2.81386C21.5263 2.48936 21.4606 2.15435 21.4288 1.81233C21.4099 1.67133 21.4411 1.52758 21.5153 1.41267C21.5896 1.29776 21.701 1.22109 21.8249 1.19951C21.8496 1.19484 21.6063 1.19951 24.1086 1.19951C25.0097 1.09679 25.3032 1.90338 25.3966 2.40998L29.0627 18.8488L32.4661 2.40998C32.5205 2.03412 32.7678 1.1178 33.7798 1.21468H35.541C35.7637 1.19367 36.6813 1.15632 36.8424 2.42516L40.2724 19.0741L44.0566 2.42516C44.1058 2.17069 44.3357 1.09795 45.358 1.21468H47.3819C47.4692 1.19951 48.0131 1.12013 47.9207 2.21621C47.8766 2.43216 48.2707 0.971888 42.5068 22.0484C42.3888 22.6915 42.0121 23.3429 41.2054 23.2588H39.2871C38.1643 23.3931 38.0032 22.1312 37.9857 22.004L34.5824 5.99704L31.218 21.9877C31.2016 22.1149 31.0405 23.3767 29.9166 23.2425H28.0384V23.2437ZM56.1069 23.9008C55.5034 23.902 52.6255 23.8658 50.2198 22.4662C49.9801 22.3508 49.776 22.1571 49.6333 21.9096C49.4906 21.6621 49.4157 21.372 49.4182 21.076V19.8212C49.4182 18.8348 50.0545 19.0158 50.3244 19.1337C51.3549 19.6076 52.0159 19.9671 53.2813 20.2542C57.0429 21.1332 58.6973 19.9858 59.1028 19.7313C60.4524 18.8197 60.5591 16.7337 59.6416 15.6516C58.566 14.6256 58.0528 14.5871 54.1886 13.2004C53.7124 13.0498 49.7035 11.6117 49.6943 7.08845C49.6317 3.79204 52.2653 0.530654 56.8294 0.557501C58.1298 0.556334 61.5947 1.03959 62.5328 2.3808C62.6713 2.62476 62.7401 2.91191 62.7298 3.20257V4.38269C62.7298 4.90096 62.5636 5.1601 62.23 5.1601C61.4387 5.05971 60.0347 3.85625 57.1845 3.90527C56.4774 3.86325 53.0904 4.01149 53.2423 6.81998C53.1982 9.03315 55.9734 9.86309 56.2906 9.9588C60.0326 11.2393 61.2837 11.4518 62.7689 13.4116C64.528 16.0088 63.5797 19.0496 63.2153 19.883C61.257 24.2592 56.1931 23.9032 56.1069 23.9008ZM60.2328 36.141C53.0453 42.1782 42.6115 45.3917 33.7028 45.3917C21.6823 45.4819 10.067 40.4549 1.14003 31.2991C0.469826 30.6116 1.061 29.6696 1.87592 30.1937C11.7785 36.6361 22.9904 40.0211 34.3987 40.0129C42.9181 39.9609 51.3445 37.9953 59.1941 34.229C60.4031 33.6453 61.4285 35.1395 60.2328 36.141ZM63.2287 32.2551C62.3091 30.9104 57.1445 31.6271 54.8321 31.9411C54.1353 32.031 54.0172 31.3434 54.6484 30.8357C58.761 27.5474 65.5153 28.4894 66.2913 29.5948C67.0661 30.7003 66.0809 38.3973 62.231 42.0743C61.6399 42.6427 61.0744 42.3428 61.3371 41.5957C62.2033 39.1152 64.1483 33.601 63.2287 32.2551Z" stroke="#F3D1D4" stroke-opacity="0.3" stroke-width="2" mask="url(#path-2-inside-1)"/>
</svg>
