<svg width="60" height="72" viewBox="0 0 60 72" fill="none" xmlns="http://www.w3.org/2000/svg">
<path d="M58.2924 17.0226C58.5922 17.1977 58.921 17.5317 59.1934 17.9419L59.076 18.0241L59.2335 18.3964C59.4171 18.8305 59.4614 19.2604 59.4165 19.6383L59.413 19.6678V19.6974V51.7986C59.413 52.2545 59.2731 52.8118 59.0199 53.3246C58.7654 53.8399 58.4235 54.2563 58.0638 54.4791C58.0634 54.4794 58.063 54.4796 58.0626 54.4799L31.8045 70.5203C31.4371 70.7103 30.9203 70.8585 30.3538 70.8585C29.7409 70.8585 29.2523 70.7486 28.9314 70.5378L28.9241 70.5331L28.9167 70.5286L2.53245 54.478L2.53001 54.4765C2.34596 54.366 2.15101 54.1962 1.97242 53.9881L2.0449 53.9501L1.76972 53.4956C1.44971 52.9671 1.34937 52.3766 1.34937 51.7986V19.7549C1.34937 19.299 1.48921 18.7417 1.74244 18.2289C1.99693 17.7135 2.33902 17.297 2.69876 17.0743C2.69908 17.0741 2.6994 17.0739 2.69972 17.0737L28.9578 1.03327C29.3252 0.843198 29.842 0.695068 30.4085 0.695068C31.0214 0.695068 31.5101 0.804912 31.8309 1.01568L31.8387 1.02078L31.8467 1.02559L58.2857 17.0187L58.2857 17.0187L58.2924 17.0226ZM39.7616 36.8986V37.3986H40.2616H42.4985V39.775V40.275H42.9985H45.7355H46.2355V39.775V37.3986H48.4725H48.9725V36.8986V34.5974V34.0974H48.4725H46.2355V31.721V31.221H45.7355H42.9985H42.4985V31.721V34.0974H40.2616H39.7616V34.5974V36.8986ZM41.6267 29.0796L41.8753 29.5461L42.3272 29.2721L49.4433 24.9574L49.8512 24.7101L49.6233 24.291C45.8225 17.3005 38.6564 12.524 30.4085 12.524C18.1761 12.524 8.28655 22.9542 8.28655 35.748C8.28655 48.5417 18.1761 58.972 30.4085 58.972C38.5994 58.972 45.7659 54.2552 49.5678 47.3216L49.7958 46.9058L49.3926 46.6561L42.3312 42.2839L41.8801 42.0046L41.628 42.4714C39.4087 46.5809 35.1907 49.3426 30.4085 49.3426C23.318 49.3426 17.4974 43.262 17.4974 35.748C17.4974 28.234 23.318 22.1534 30.4085 22.1534C35.1898 22.1534 39.4071 24.9141 41.6267 29.0796ZM58.3255 37.3986H58.8255V36.8986V34.5974V34.0974H58.3255H56.0886V31.721V31.221H55.5886H53.399H52.899V31.721V34.0974H50.1146H49.6146V34.5974V36.8986V37.3986H50.1146H52.899V39.775V40.275H53.399H55.5886H56.0886V39.775V37.3986H58.3255Z" stroke="#F3D1D4" stroke-opacity="0.3"/>
</svg>
