<svg width="53" height="54" viewBox="0 0 53 54" fill="none" xmlns="http://www.w3.org/2000/svg">
<path d="M6.97017 30.6956V30.331L6.62294 30.2195C5.2149 29.7677 4.01616 28.6008 3.16161 27.141C2.30854 25.6837 1.83705 23.9979 1.83705 22.603C1.83705 18.8049 3.96505 16.0087 6.90181 14.5837C9.85027 13.1531 13.5998 13.1156 16.7798 14.8658L16.8924 14.9278H17.0209C19.1792 14.9278 21.2922 14.4367 23.262 13.7477V18.633C22.5899 18.8387 21.9146 19.0122 21.2207 19.1606L20.6484 19.283L20.8587 19.8292C21.1509 20.5884 21.32 21.3422 21.32 22.1305C21.32 26.8651 18.2864 30.4804 13.3838 31.3492L13.3837 31.3491L13.3736 31.3512C12.5703 31.5107 11.8491 31.7645 11.3302 32.2527C10.7896 32.7614 10.5343 33.46 10.5343 34.358C10.5343 35.0543 10.7804 35.6223 11.2059 36.0773C11.6179 36.5179 12.1811 36.8352 12.7972 37.0869C13.6495 37.4351 14.7154 37.6969 15.7975 37.9627C16.2506 38.074 16.7066 38.186 17.1509 38.3053C18.704 38.7224 20.1759 39.2393 21.2592 40.1217C22.3129 40.98 23.027 42.2068 23.027 44.1399C23.027 47.3908 21.8875 49.4687 20.0431 50.758C18.1655 52.0705 15.4828 52.6186 12.3083 52.6186C9.70651 52.6186 6.97292 52.2002 4.90832 51.0744C2.87658 49.9665 1.49072 48.1791 1.49072 45.345C1.49072 43.694 2.00699 42.4216 2.89736 41.4341C3.79698 40.4364 5.10816 39.6975 6.74403 39.1824L7.09386 39.0723V38.7055V38.5874V38.2995L6.84495 38.155C5.50442 37.3765 4.94021 35.8851 5 34.4152C5.0611 32.9132 5.75645 31.6574 6.66444 31.2745L6.97017 31.1456V30.8138V30.6956ZM6.76178 45.0355V45.0378C6.76178 45.8121 6.99927 46.4451 7.4129 46.9436C7.81932 47.4335 8.37088 47.7642 8.95777 47.9899C10.1206 48.437 11.5385 48.5149 12.6175 48.5149C13.7651 48.5149 15.029 48.3825 16.022 47.8718C16.5266 47.6123 16.9728 47.2491 17.2908 46.7476C17.6099 46.2446 17.7806 45.6327 17.7806 44.9079C17.7806 44.1546 17.5611 43.5342 17.1731 43.0409C16.7909 42.5547 16.2696 42.2223 15.7104 41.9936C14.6044 41.5414 13.248 41.4544 12.1846 41.4544C11.0726 41.4544 9.75466 41.5655 8.69711 42.0543C8.1609 42.302 7.67336 42.6551 7.31976 43.1563C6.96331 43.6616 6.76531 44.286 6.76178 45.0355ZM39.9211 29.3252V19.4643H39.9829V18.9643V18.8462V18.3462H39.4829C39.274 18.3462 39.1103 18.3326 38.9424 18.3187C38.5439 18.2856 38.1217 18.2506 37.0144 18.3905V13.8527H39.4829H39.9829V13.3527C39.9829 12.9996 39.9836 12.6744 39.9843 12.3727C39.9878 10.7998 39.9899 9.86918 39.8803 8.98532H45.7408C45.6061 10.1929 45.614 11.3928 45.6216 12.5575C45.6233 12.8245 45.625 13.0897 45.625 13.3527V13.8527H46.125H51.9332V18.443C51.6503 18.4323 51.2569 18.4189 50.7631 18.4054C49.6721 18.3758 48.0905 18.3462 46.125 18.3462H45.625V18.8462V29.6087C45.625 30.5045 45.7265 31.5723 46.1711 32.4316C46.3976 32.8696 46.7188 33.2642 47.1684 33.5473C47.6193 33.8312 48.1692 33.9837 48.8215 33.9837C49.8226 33.9837 50.971 33.7728 51.9456 33.3398V37.9822C50.4395 38.6904 48.5318 38.9498 46.8177 38.9498C45.2253 38.9498 44.023 38.65 43.1098 38.1516C42.2007 37.6555 41.5483 36.9465 41.0776 36.0767C40.1215 34.3098 39.9211 31.8946 39.9211 29.3252ZM7.41734 22.6621C7.41734 23.96 7.72039 25.0993 8.46252 25.9163C9.21272 26.7423 10.3346 27.1552 11.7888 27.1552C13.2387 27.1552 14.3176 26.7035 15.0193 25.8449C15.7054 25.0053 15.9624 23.8584 15.9624 22.603C15.9624 21.0614 15.45 19.8563 14.6394 19.0348C13.8331 18.2175 12.7595 17.8087 11.6899 17.8087C10.62 17.8087 9.54534 18.2178 8.73853 19.044C7.92794 19.8741 7.41734 21.0938 7.41734 22.6621ZM33.8869 4.52763C33.8869 6.48943 32.2894 8.30429 30.2062 8.30429C28.0501 8.30429 26.4389 6.51327 26.4389 4.52763C26.4389 2.49832 28.0332 0.691895 30.2062 0.691895C32.3382 0.691895 33.8869 2.55177 33.8869 4.52763ZM33.0832 13.8291C33.045 14.6195 33.0177 16.0325 32.9983 17.7726C32.9724 20.1021 32.9608 23.0673 32.9623 26.0441C32.9651 31.3133 33.0088 36.6623 33.0898 38.5599H27.2855C27.3665 36.6609 27.4102 31.3156 27.413 26.0486C27.4145 23.074 27.4029 20.1106 27.377 17.7809C27.3576 16.0372 27.3302 14.6214 27.2919 13.8291H33.0832Z" stroke="#F3D1D4" stroke-opacity="0.3"/>
</svg>
