<svg width="61" height="65" viewBox="0 0 61 65" fill="none" xmlns="http://www.w3.org/2000/svg">
<rect width="61" height="65" fill="#1A1929"/>
<rect x="-149" y="-500" width="1902" height="975" fill="#070609"/>
<mask id="path-2-inside-1" fill="white">
<path d="M0.60791 0.884766V64.3105H60.821V0.884766H0.60791ZM33.3757 50.3512C33.3757 56.5239 29.9349 59.3412 24.9216 59.3412C20.3922 59.3412 17.7713 56.8778 16.4273 53.8906L21.0374 50.9599C21.9244 52.6164 22.7309 54.018 24.6797 54.018C26.5345 54.018 27.7173 53.2535 27.7173 50.2662V30.0068H33.3757V50.3512ZM46.7623 59.3412C41.5071 59.3412 38.1067 56.7079 36.4535 53.2535L41.0636 50.4503C42.2732 52.5314 43.8592 54.0746 46.6414 54.0746C48.98 54.0746 50.4853 52.8429 50.4853 51.1298C50.4853 49.0912 48.9531 48.3691 46.3591 47.1657L44.9479 46.5286C40.862 44.7023 38.1605 42.3946 38.1605 37.5386C38.1605 33.0648 41.3996 29.667 46.4398 29.667C50.0418 29.667 52.6224 30.9837 54.4771 34.4381L50.0687 37.4112C49.101 35.5849 48.0526 34.8628 46.4263 34.8628C44.7732 34.8628 43.7248 35.9671 43.7248 37.4112C43.7248 39.195 44.7732 39.9171 47.2059 41.0355L48.6171 41.6726C53.4288 43.8387 56.1303 46.0614 56.1303 51.0449C56.1303 56.3964 52.1251 59.3412 46.7623 59.3412Z"/>
</mask>
<path d="M0.60791 0.884766V64.3105H60.821V0.884766H0.60791ZM33.3757 50.3512C33.3757 56.5239 29.9349 59.3412 24.9216 59.3412C20.3922 59.3412 17.7713 56.8778 16.4273 53.8906L21.0374 50.9599C21.9244 52.6164 22.7309 54.018 24.6797 54.018C26.5345 54.018 27.7173 53.2535 27.7173 50.2662V30.0068H33.3757V50.3512ZM46.7623 59.3412C41.5071 59.3412 38.1067 56.7079 36.4535 53.2535L41.0636 50.4503C42.2732 52.5314 43.8592 54.0746 46.6414 54.0746C48.98 54.0746 50.4853 52.8429 50.4853 51.1298C50.4853 49.0912 48.9531 48.3691 46.3591 47.1657L44.9479 46.5286C40.862 44.7023 38.1605 42.3946 38.1605 37.5386C38.1605 33.0648 41.3996 29.667 46.4398 29.667C50.0418 29.667 52.6224 30.9837 54.4771 34.4381L50.0687 37.4112C49.101 35.5849 48.0526 34.8628 46.4263 34.8628C44.7732 34.8628 43.7248 35.9671 43.7248 37.4112C43.7248 39.195 44.7732 39.9171 47.2059 41.0355L48.6171 41.6726C53.4288 43.8387 56.1303 46.0614 56.1303 51.0449C56.1303 56.3964 52.1251 59.3412 46.7623 59.3412Z" stroke="#F3D1D4" stroke-opacity="0.3" stroke-width="2" mask="url(#path-2-inside-1)"/>
</svg>
