<svg width="58" height="69" viewBox="0 0 58 69" fill="none" xmlns="http://www.w3.org/2000/svg">
<rect width="58" height="69" fill="#1A1929"/>
<rect x="-262" y="-498" width="1902" height="975" fill="#070609"/>
<mask id="path-2-inside-1" fill="white">
<path d="M28.8354 68.0045C27.984 68.0045 27.1199 67.7638 26.3702 67.3092L18.5298 62.4288C17.3607 61.7335 17.9325 61.4928 18.3137 61.3591C19.8767 60.7842 20.1944 60.6638 21.8591 59.661C22.037 59.554 22.2657 59.5941 22.4436 59.7145L28.4669 63.4717C28.6829 63.6054 28.9879 63.6054 29.1912 63.4717L52.6616 49.2182C52.8776 49.0845 53.0174 48.8171 53.0174 48.5497V20.0427C53.0174 19.7619 52.8776 19.5079 52.6489 19.3608L29.1912 5.12068C28.9752 4.98697 28.6829 4.98697 28.4669 5.12068L5.02189 19.3742C4.79315 19.5079 4.65337 19.7753 4.65337 20.0561V48.5497C4.65337 48.8171 4.79315 49.0845 5.02189 49.2049L11.4518 53.1092C14.9463 54.941 17.0811 52.7883 17.0811 50.6088V22.4762C17.0811 22.0751 17.3861 21.7676 17.7673 21.7676H20.7408C21.1093 21.7676 21.427 22.0751 21.427 22.4762V50.6222C21.427 55.516 18.8856 58.3239 14.4761 58.3239C13.1164 58.3239 12.049 58.3239 9.07552 56.7729L2.92518 53.0424C1.4003 52.1198 0.459961 50.3949 0.459961 48.5363V20.0427C0.459961 18.1975 1.4003 16.4593 2.92518 15.5367L26.3702 1.2832C27.8569 0.400716 29.8266 0.400716 31.3006 1.2832L54.771 15.5501C56.2959 16.4727 57.2362 18.1975 57.2362 20.0561V48.5497C57.2362 50.3949 56.2959 52.1198 54.771 53.0557L31.3006 67.3092C30.5509 67.7638 29.6995 68.0045 28.8354 68.0045ZM47.782 39.912C47.782 34.577 44.351 33.1597 37.146 32.1568C29.852 31.1406 29.115 30.6192 29.115 28.8275C29.115 27.3433 29.7376 25.3644 35.1382 25.3644C39.9543 25.3644 41.7333 26.4608 42.4703 29.8838C42.5339 30.2047 42.8134 30.4454 43.1311 30.4454H46.1809C46.3715 30.4454 46.5494 30.3651 46.6765 30.218C46.8035 30.071 46.8671 29.8704 46.8544 29.6698C46.3842 23.7732 42.6609 21.0322 35.1382 21.0322C28.4415 21.0322 24.4514 24.0005 24.4514 28.9879C24.4514 34.3898 28.4288 35.8874 34.846 36.5559C42.5339 37.3448 43.1311 38.5348 43.1311 40.126C43.1311 42.8804 41.0217 44.057 36.0786 44.057C29.8647 44.057 28.505 42.4124 28.0475 39.1632C27.9967 38.8156 27.7171 38.5616 27.3741 38.5616H24.337C23.9558 38.5616 23.6635 38.8825 23.6635 39.2702C23.6635 43.4286 25.811 48.3892 36.0913 48.3892C43.5123 48.3759 47.782 45.2872 47.782 39.912Z"/>
</mask>
<path d="M28.8354 68.0045C27.984 68.0045 27.1199 67.7638 26.3702 67.3092L18.5298 62.4288C17.3607 61.7335 17.9325 61.4928 18.3137 61.3591C19.8767 60.7842 20.1944 60.6638 21.8591 59.661C22.037 59.554 22.2657 59.5941 22.4436 59.7145L28.4669 63.4717C28.6829 63.6054 28.9879 63.6054 29.1912 63.4717L52.6616 49.2182C52.8776 49.0845 53.0174 48.8171 53.0174 48.5497V20.0427C53.0174 19.7619 52.8776 19.5079 52.6489 19.3608L29.1912 5.12068C28.9752 4.98697 28.6829 4.98697 28.4669 5.12068L5.02189 19.3742C4.79315 19.5079 4.65337 19.7753 4.65337 20.0561V48.5497C4.65337 48.8171 4.79315 49.0845 5.02189 49.2049L11.4518 53.1092C14.9463 54.941 17.0811 52.7883 17.0811 50.6088V22.4762C17.0811 22.0751 17.3861 21.7676 17.7673 21.7676H20.7408C21.1093 21.7676 21.427 22.0751 21.427 22.4762V50.6222C21.427 55.516 18.8856 58.3239 14.4761 58.3239C13.1164 58.3239 12.049 58.3239 9.07552 56.7729L2.92518 53.0424C1.4003 52.1198 0.459961 50.3949 0.459961 48.5363V20.0427C0.459961 18.1975 1.4003 16.4593 2.92518 15.5367L26.3702 1.2832C27.8569 0.400716 29.8266 0.400716 31.3006 1.2832L54.771 15.5501C56.2959 16.4727 57.2362 18.1975 57.2362 20.0561V48.5497C57.2362 50.3949 56.2959 52.1198 54.771 53.0557L31.3006 67.3092C30.5509 67.7638 29.6995 68.0045 28.8354 68.0045ZM47.782 39.912C47.782 34.577 44.351 33.1597 37.146 32.1568C29.852 31.1406 29.115 30.6192 29.115 28.8275C29.115 27.3433 29.7376 25.3644 35.1382 25.3644C39.9543 25.3644 41.7333 26.4608 42.4703 29.8838C42.5339 30.2047 42.8134 30.4454 43.1311 30.4454H46.1809C46.3715 30.4454 46.5494 30.3651 46.6765 30.218C46.8035 30.071 46.8671 29.8704 46.8544 29.6698C46.3842 23.7732 42.6609 21.0322 35.1382 21.0322C28.4415 21.0322 24.4514 24.0005 24.4514 28.9879C24.4514 34.3898 28.4288 35.8874 34.846 36.5559C42.5339 37.3448 43.1311 38.5348 43.1311 40.126C43.1311 42.8804 41.0217 44.057 36.0786 44.057C29.8647 44.057 28.505 42.4124 28.0475 39.1632C27.9967 38.8156 27.7171 38.5616 27.3741 38.5616H24.337C23.9558 38.5616 23.6635 38.8825 23.6635 39.2702C23.6635 43.4286 25.811 48.3892 36.0913 48.3892C43.5123 48.3759 47.782 45.2872 47.782 39.912Z" stroke="#F3D1D4" stroke-opacity="0.3" stroke-width="2" mask="url(#path-2-inside-1)"/>
</svg>
