<svg width="72" height="41" viewBox="0 0 72 41" fill="none" xmlns="http://www.w3.org/2000/svg">
<path d="M25.0077 18.868L25.0079 18.867C25.2202 17.7091 25.2114 16.7923 24.9458 16.0823C24.6682 15.3402 24.1344 14.8864 23.4536 14.6235C22.7989 14.3707 21.9981 14.2896 21.1379 14.2641C20.5884 14.2478 19.9801 14.2542 19.3425 14.261C18.9842 14.2647 18.6166 14.2686 18.245 14.2686H17.8289L17.7533 14.6778L16.23 22.9279L16.121 23.5186H16.7217C17.0424 23.5186 17.3646 23.5223 17.684 23.5259C18.2895 23.5328 18.8851 23.5396 19.4416 23.5211C20.3006 23.4926 21.1316 23.4037 21.8824 23.1452C22.6442 22.883 23.3199 22.4474 23.8611 21.74C24.3969 21.0396 24.7787 20.1018 25.0077 18.868ZM31.7389 25.6153H28.6971L32.1484 6.91343H35.1898L34.3316 11.5577L34.2224 12.1486H34.8233C35.3031 12.1486 35.7729 12.1437 36.2308 12.139C37.4735 12.1263 38.6293 12.1144 39.665 12.2023C41.0875 12.323 42.1394 12.6253 42.7923 13.258L42.7929 13.2586C43.1423 13.596 43.3475 13.9375 43.4532 14.3973C43.5637 14.8785 43.5711 15.5146 43.4662 16.4496C43.3264 17.694 43.0021 19.3673 42.5398 21.7528C42.3227 22.8734 42.0751 24.1511 41.8018 25.6153H38.7043C38.9797 24.1301 39.2172 22.8734 39.4186 21.8077C39.7936 19.8233 40.0435 18.5009 40.1795 17.5979C40.288 16.8772 40.3331 16.3706 40.296 15.9872C40.2547 15.5606 40.1115 15.2829 39.8897 15.033C39.4426 14.5283 38.7571 14.3925 37.9234 14.3426C37.3419 14.3077 36.5945 14.3133 35.6594 14.3203C35.2285 14.3235 34.7578 14.3271 34.2451 14.3271H33.8292L33.7535 14.736L31.7389 25.6153ZM16.1324 25.6387H15.7164L15.6408 26.0478L14.749 30.8738H11.6851L15.1365 12.1603H22.5814C24.8543 12.1603 26.4171 12.7785 27.3658 13.9297L27.3664 13.9304C28.2796 15.0346 28.6062 16.7456 28.3263 18.5695C28.0477 20.3843 27.1781 22.2291 25.8142 23.5472L25.8142 23.5472L25.811 23.5504C23.6337 25.6931 21.3558 25.6754 17.5862 25.6461C17.1248 25.6425 16.6411 25.6387 16.1324 25.6387ZM56.8967 18.8678L56.8969 18.867C57.1091 17.7096 57.1018 16.7932 56.8384 16.0835C56.563 15.3413 56.0314 14.8869 55.3514 14.6237C54.6977 14.3707 53.8974 14.2896 53.0363 14.2641C52.4864 14.2478 51.877 14.2542 51.2374 14.261C50.8774 14.2647 50.5079 14.2686 50.134 14.2686H49.7179L49.6423 14.6778L48.119 22.9279L48.01 23.5186H48.6107C48.9517 23.5186 49.2982 23.5237 49.6429 23.5287C50.2054 23.5369 50.763 23.5451 51.2837 23.5311C52.1365 23.5081 52.9694 23.4263 53.7258 23.1728C54.4931 22.9158 55.1789 22.483 55.7295 21.7719C56.2749 21.0676 56.6648 20.1202 56.8967 18.8678ZM48.0326 25.6387H47.6165L47.5409 26.0478L46.6491 30.8738H43.5744L47.0364 12.1603H54.4815C56.7545 12.1603 58.3172 12.7785 59.2659 13.9297L59.2665 13.9304C60.1797 15.0346 60.5063 16.7456 60.2264 18.5695C59.9478 20.3843 59.0782 22.2291 57.7143 23.5472L57.7113 23.5501C55.5481 25.676 53.3771 25.6645 49.3571 25.6432C48.9365 25.641 48.4957 25.6387 48.0326 25.6387ZM70.0476 20.3543C70.0476 15.4441 66.1801 10.8868 60.0758 7.58764C53.9447 4.27404 45.4321 2.15068 35.8351 2.15068C26.2437 2.15068 17.7311 4.27406 11.5987 7.58761C5.49314 10.8867 1.62261 15.444 1.62261 20.3543C1.62261 25.2646 5.49017 29.8219 11.5945 33.121C17.7255 36.4346 26.2382 38.558 35.8351 38.558C45.4266 38.558 53.9392 36.4346 60.0716 33.121C66.1771 29.822 70.0476 25.2647 70.0476 20.3543ZM0.754639 20.3543C0.754639 15.1859 4.54958 10.4029 10.919 6.8832C17.2711 3.37312 26.0797 1.1875 35.8351 1.1875C45.5905 1.1875 54.3992 3.37312 60.7512 6.8832C67.1207 10.4029 70.9156 15.1859 70.9156 20.3543C70.9156 25.5228 67.1207 30.3058 60.7512 33.8255C54.3992 37.3355 45.5905 39.5212 35.8351 39.5212C26.0797 39.5212 17.2711 37.3355 10.919 33.8255C4.54958 30.3058 0.754639 25.5228 0.754639 20.3543Z" stroke="#F3D1D4" stroke-opacity="0.3"/>
</svg>
