<svg width="71" height="64" viewBox="0 0 71 64" fill="none" xmlns="http://www.w3.org/2000/svg">
<mask id="path-1-inside-1" fill="white">
<path d="M56.6453 0.82147L56.6541 0.803345H43.6821L35.5471 15.2976V15.3036L27.421 0.803345H14.449V0.818449H0.368896L35.5471 63.6108L70.7254 0.82147"/>
</mask>
<path d="M56.6541 0.803345L57.5537 1.23991L58.2508 -0.196655H56.6541V0.803345ZM43.6821 0.803345V-0.196655H43.0966L42.8101 0.313909L43.6821 0.803345ZM35.5471 15.2976L34.6751 14.8082L34.5471 15.0362V15.2976H35.5471ZM35.5471 15.3036L34.6748 15.7925L36.5471 19.1335V15.3036H35.5471ZM27.421 0.803345L28.2933 0.314466L28.0069 -0.196655H27.421V0.803345ZM14.449 0.803345V-0.196655H13.449V0.803345H14.449ZM14.449 0.818449V1.81845H15.449V0.818449H14.449ZM0.368896 0.818449V-0.181551H-1.33757L-0.503523 1.30721L0.368896 0.818449ZM35.5471 63.6108L34.6747 64.0995L35.5471 65.6567L36.4195 64.0995L35.5471 63.6108ZM57.5449 1.25803L57.5537 1.23991L55.7544 0.366782L55.7456 0.384907L57.5449 1.25803ZM56.6541 -0.196655H43.6821V1.80334H56.6541V-0.196655ZM42.8101 0.313909L34.6751 14.8082L36.4192 15.787L44.5541 1.29278L42.8101 0.313909ZM34.5471 15.2976V15.3036H36.5471V15.2976H34.5471ZM36.4195 14.8148L28.2933 0.314466L26.5486 1.29222L34.6748 15.7925L36.4195 14.8148ZM27.421 -0.196655H14.449V1.80334H27.421V-0.196655ZM13.449 0.803345V0.818449H15.449V0.803345H13.449ZM14.449 -0.181551H0.368896V1.81845H14.449V-0.181551ZM-0.503523 1.30721L34.6747 64.0995L36.4195 63.122L1.24132 0.329692L-0.503523 1.30721ZM36.4195 64.0995L71.5978 1.31025L69.853 0.332695L34.6747 63.122L36.4195 64.0995Z" fill="#F3D1D4" fill-opacity="0.3" mask="url(#path-1-inside-1)"/>
</svg>
