<svg width="136" height="38" viewBox="0 0 136 38" fill="none" xmlns="http://www.w3.org/2000/svg">
<path d="M27.5665 24.7133C27.5665 24.161 28.0142 23.7133 28.5665 23.7133L134.778 23.7133C135.331 23.7133 135.778 23.2656 135.778 22.7133L135.778 15.202C135.778 14.6497 135.331 14.202 134.778 14.202L28.5665 14.202C28.0142 14.202 27.5665 13.7542 27.5665 13.202L27.5665 1.8332C27.5665 1.02858 26.6646 0.553438 26.001 1.00846L1.02699 18.1329C0.447679 18.5301 0.447679 19.3851 1.02699 19.7823L26.001 36.9068C26.6646 37.3618 27.5665 36.8866 27.5665 36.082L27.5665 24.7133Z" fill="#8CF2D9"/>
</svg>
