<svg width="28" height="25" viewBox="0 0 28 25"  xmlns="http://www.w3.org/2000/svg">
<path d="M24.4675 0.0530396H3.25321C1.65611 0.0530396 0.360352 1.22285 0.360352 2.66471V21.817C0.360352 23.2588 1.65611 24.4286 3.25321 24.4286H24.4675C26.0646 24.4286 27.3604 23.2588 27.3604 21.817V2.66471C27.3604 1.22285 26.0646 0.0530396 24.4675 0.0530396ZM17.0726 20.9301C16.5664 21.0117 16.3795 20.7288 16.3795 20.4948C16.3795 20.201 16.3916 18.6993 16.3916 17.4859C16.3916 16.6371 16.0782 16.0985 15.7106 15.8156C17.9405 15.5925 20.2909 15.315 20.2909 11.8382C20.2909 10.8479 19.8992 10.3528 19.2604 9.71622C19.3628 9.48226 19.7063 8.5192 19.1579 7.26778C18.3202 7.03382 16.4037 8.24171 16.4037 8.24171C15.6081 8.0404 14.7463 7.93702 13.8965 7.93702C13.0467 7.93702 12.1849 8.0404 11.3894 8.24171C11.3894 8.24171 9.47285 7.03382 8.63513 7.26778C8.08669 8.51376 8.42419 9.47681 8.53267 9.71622C7.89383 10.3528 7.59249 10.8479 7.59249 11.8382C7.59249 15.2987 9.84049 15.5925 12.0704 15.8156C11.7811 16.0495 11.522 16.4521 11.4316 17.0289C10.859 17.2629 9.3945 17.6655 8.52062 16.2726C7.97218 15.4129 6.98379 15.3422 6.98379 15.3422C6.00745 15.3313 6.91749 15.8972 6.91749 15.8972C7.56839 16.1692 8.02642 17.2139 8.02642 17.2139C8.61102 18.8299 11.4075 18.2858 11.4075 18.2858C11.4075 19.0421 11.4195 20.2717 11.4195 20.4948C11.4195 20.7288 11.2387 21.0117 10.7264 20.9301C6.74874 19.7276 3.96437 16.3107 3.96437 12.317C3.96437 7.32219 8.19517 3.52982 13.7278 3.52982C19.2604 3.52982 23.7443 7.32219 23.7443 12.317C23.7503 16.3107 21.0503 19.7331 17.0726 20.9301ZM11.1604 17.6056C11.0458 17.6274 10.9374 17.5839 10.9253 17.5131C10.9133 17.4315 10.9916 17.3608 11.1061 17.339C11.2206 17.3281 11.3291 17.3717 11.3412 17.4424C11.3592 17.5131 11.2809 17.5839 11.1604 17.6056ZM10.5878 17.5567C10.5878 17.6274 10.4974 17.6873 10.3769 17.6873C10.2443 17.6981 10.1539 17.6383 10.1539 17.5567C10.1539 17.4859 10.2443 17.4261 10.3648 17.4261C10.4793 17.4152 10.5878 17.4751 10.5878 17.5567ZM9.76214 17.4968C9.73803 17.5675 9.61749 17.6002 9.51504 17.5675C9.40053 17.5458 9.32218 17.4642 9.34629 17.3934C9.3704 17.3227 9.49093 17.2901 9.59339 17.3118C9.71392 17.3445 9.79227 17.4261 9.76214 17.4968ZM9.02084 17.203C8.9666 17.2629 8.85209 17.252 8.76169 17.1704C8.67129 17.0996 8.64718 16.9962 8.70745 16.9473C8.76169 16.8874 8.8762 16.8983 8.9666 16.9799C9.04495 17.0507 9.07508 17.1595 9.02084 17.203ZM8.47241 16.7079C8.41816 16.7405 8.31571 16.7079 8.24941 16.6263C8.18312 16.5446 8.18312 16.4521 8.24941 16.4141C8.31571 16.3651 8.41816 16.4032 8.47241 16.4848C8.5387 16.5664 8.5387 16.6643 8.47241 16.7079V16.7079ZM8.08066 16.1801C8.02642 16.2291 7.93602 16.2019 7.86973 16.1475C7.80343 16.0767 7.79138 15.9951 7.84562 15.957C7.89986 15.908 7.99026 15.9353 8.05656 15.9897C8.12285 16.0604 8.13491 16.142 8.08066 16.1801ZM7.67687 15.7775C7.65276 15.8264 7.57441 15.8373 7.50812 15.7992C7.42977 15.7666 7.39361 15.7067 7.41772 15.6578C7.44182 15.6251 7.50812 15.6088 7.58647 15.636C7.66482 15.6741 7.70098 15.7339 7.67687 15.7775Z" />
</svg>
