<svg width="26" height="26" viewBox="0 0 26 26"  xmlns="http://www.w3.org/2000/svg">
<path d="M13.0002 8.83435C10.7064 8.83435 8.83453 10.7062 8.83453 13C8.83453 15.2937 10.7064 17.1656 13.0002 17.1656C15.2939 17.1656 17.1658 15.2937 17.1658 13C17.1658 10.7062 15.2939 8.83435 13.0002 8.83435ZM25.4939 13C25.4939 11.275 25.5095 9.5656 25.4127 7.84373C25.3158 5.84373 24.8595 4.06873 23.397 2.60623C21.9314 1.1406 20.1595 0.687477 18.1595 0.590602C16.4345 0.493727 14.7252 0.509352 13.0033 0.509352C11.2783 0.509352 9.5689 0.493727 7.84703 0.590602C5.84702 0.687477 4.07202 1.14373 2.60952 2.60623C1.1439 4.07185 0.690773 5.84373 0.593898 7.84373C0.497023 9.56873 0.512648 11.2781 0.512648 13C0.512648 14.7219 0.497023 16.4344 0.593898 18.1562C0.690773 20.1562 1.14702 21.9312 2.60952 23.3937C4.07515 24.8594 5.84702 25.3125 7.84703 25.4094C9.57203 25.5062 11.2814 25.4906 13.0033 25.4906C14.7283 25.4906 16.4377 25.5062 18.1595 25.4094C20.1595 25.3125 21.9345 24.8562 23.397 23.3937C24.8627 21.9281 25.3158 20.1562 25.4127 18.1562C25.5127 16.4344 25.4939 14.725 25.4939 13V13ZM13.0002 19.4094C9.45327 19.4094 6.59077 16.5469 6.59077 13C6.59077 9.4531 9.45327 6.5906 13.0002 6.5906C16.547 6.5906 19.4095 9.4531 19.4095 13C19.4095 16.5469 16.547 19.4094 13.0002 19.4094ZM19.672 7.82498C18.8439 7.82498 18.1752 7.15623 18.1752 6.3281C18.1752 5.49998 18.8439 4.83123 19.672 4.83123C20.5002 4.83123 21.1689 5.49998 21.1689 6.3281C21.1692 6.52474 21.1306 6.7195 21.0555 6.90122C20.9803 7.08294 20.8701 7.24806 20.731 7.3871C20.592 7.52615 20.4269 7.6364 20.2452 7.71154C20.0634 7.78668 19.8687 7.82522 19.672 7.82498V7.82498Z" />
</svg>
