<svg width="50" height="50" viewBox="0 0 50 50" fill="none" xmlns="http://www.w3.org/2000/svg">
<g style="mix-blend-mode:color-dodge">
<path d="M50 25C50 20.0555 48.5338 15.222 45.7867 11.1107C43.0397 6.99951 39.1352 3.7952 34.5671 1.903C29.9989 0.0108147 24.9723 -0.484268 20.1227 0.480362C15.2732 1.44499 10.8186 3.82601 7.32233 7.32233C3.82602 10.8186 1.445 15.2732 0.48037 20.1227C-0.484261 24.9723 0.0108223 29.9989 1.90302 34.5671C3.7952 39.1352 6.99952 43.0397 11.1107 45.7867C15.222 48.5338 20.0555 50 25 50C28.283 50 31.5339 49.3534 34.5671 48.097C37.6002 46.8406 40.3562 44.9991 42.6777 42.6777C47.3661 37.9893 50 31.6304 50 25ZM20.35 34.225L13.2 26.725C13.0942 26.6165 13.0094 26.4894 12.95 26.35C12.8438 26.2324 12.7592 26.097 12.7 25.95C12.5677 25.6507 12.4994 25.3272 12.4994 25C12.4994 24.6728 12.5677 24.3492 12.7 24.05C12.819 23.7431 12.9974 23.4628 13.225 23.225L20.725 15.725C21.1958 15.2542 21.8342 14.9898 22.5 14.9898C23.1658 14.9898 23.8042 15.2542 24.275 15.725C24.7458 16.1958 25.0102 16.8342 25.0102 17.5C25.0102 18.1658 24.7458 18.8042 24.275 19.275L21.025 22.5H35C35.663 22.5 36.2989 22.7634 36.7678 23.2322C37.2366 23.7011 37.5 24.337 37.5 25C37.5 25.663 37.2366 26.2989 36.7678 26.7678C36.2989 27.2366 35.663 27.5 35 27.5H20.85L23.975 30.775C24.4325 31.2557 24.6803 31.8985 24.6639 32.5619C24.6475 33.2253 24.3682 33.855 23.8875 34.3125C23.4068 34.77 22.764 35.0178 22.1006 35.0014C21.4372 34.985 20.8075 34.7057 20.35 34.225Z" fill="white"/>
</g>
</svg>
