<svg width="29" height="25" viewBox="0 0 29 25"  xmlns="http://www.w3.org/2000/svg">
<path d="M5.86218 0C2.84681 0 0.378906 2.15758 0.378906 4.7939V19.6702C0.378906 22.3065 2.84675 24.4633 5.86218 24.4633H22.8777C25.8931 24.4633 28.3601 22.3065 28.3601 19.6702V4.7939C28.3601 2.15763 25.8931 0 22.8777 0H5.86218ZM7.2413 4.03694C8.68711 4.03694 9.57766 4.86676 9.60515 5.95754C9.60515 7.02424 8.68705 7.87738 7.21334 7.87738H7.18621C5.76792 7.87738 4.85122 7.02429 4.85122 5.95754C4.85122 4.86678 5.79567 4.03694 7.24128 4.03694H7.2413ZM19.7006 9.13513C22.4812 9.13513 24.5656 10.724 24.5656 14.1385V20.5127H20.3399V14.5659C20.3399 13.0715 19.7283 12.0519 18.1991 12.0519C17.0316 12.0519 16.3358 12.7391 16.0303 13.403C15.9187 13.6405 15.8912 13.9722 15.8912 14.3044V20.5127H11.6655C11.6655 20.5127 11.721 10.4389 11.6655 9.39583H15.8921V10.9701C16.4536 10.2126 17.4581 9.1351 19.7006 9.1351V9.13513ZM5.10048 9.39663H9.32617V20.5128H5.10048V9.39663V9.39663Z" />
</svg>
