<svg width="50" height="50" viewBox="0 0 50 50" fill="none" xmlns="http://www.w3.org/2000/svg">
<g style="mix-blend-mode:color-dodge">
<path d="M0 25C0 29.9445 1.46622 34.778 4.21326 38.8893C6.96029 43.0005 10.8648 46.2048 15.4329 48.097C20.0011 49.9892 25.0277 50.4843 29.8773 49.5196C34.7268 48.555 39.1814 46.174 42.6777 42.6777C46.174 39.1814 48.555 34.7268 49.5196 29.8773C50.4843 25.0277 49.9892 20.0011 48.097 15.4329C46.2048 10.8648 43.0005 6.9603 38.8893 4.21326C34.778 1.46622 29.9445 0 25 0C21.717 0 18.4661 0.646644 15.4329 1.90301C12.3998 3.15938 9.64379 5.00087 7.32233 7.32233C2.63392 12.0107 0 18.3696 0 25ZM29.65 15.775L36.8 23.275C36.9058 23.3835 36.9906 23.5106 37.05 23.65C37.1562 23.7676 37.2408 23.903 37.3 24.05C37.4323 24.3493 37.5006 24.6728 37.5006 25C37.5006 25.3272 37.4323 25.6508 37.3 25.95C37.181 26.2569 37.0026 26.5372 36.775 26.775L29.275 34.275C28.8042 34.7458 28.1658 35.0102 27.5 35.0102C26.8342 35.0102 26.1958 34.7458 25.725 34.275C25.2542 33.8042 24.9898 33.1658 24.9898 32.5C24.9898 31.8342 25.2542 31.1958 25.725 30.725L28.975 27.5H15C14.337 27.5 13.7011 27.2366 13.2322 26.7678C12.7634 26.2989 12.5 25.663 12.5 25C12.5 24.337 12.7634 23.7011 13.2322 23.2322C13.7011 22.7634 14.337 22.5 15 22.5H29.15L26.025 19.225C25.5675 18.7443 25.3197 18.1015 25.3361 17.4381C25.3525 16.7747 25.6318 16.145 26.1125 15.6875C26.5932 15.23 27.236 14.9822 27.8994 14.9986C28.5628 15.015 29.1925 15.2943 29.65 15.775Z" fill="white"/>
</g>
</svg>
