<svg width="51" height="47" viewBox="0 0 51 47" fill="none" xmlns="http://www.w3.org/2000/svg">
<path d="M27.7255 6.17334C19.7794 6.17334 13.3719 11.8964 12.9714 19.0939L8.92459 24.0021C8.41873 24.6035 8.92459 25.5735 9.80983 25.5735H12.9714V31.3936C12.9714 33.547 14.8473 35.2736 17.1869 35.2736H19.2946V41.0937H34.0486V31.995C39.0439 29.8222 42.4795 25.1855 42.4795 19.7535C42.4795 12.265 35.9034 6.17334 27.7255 6.17334ZM36.1564 17.4836C36.1564 20.4713 33.2899 22.8575 28.948 26.4853L27.7255 27.5135L26.503 26.4853C22.1611 22.8575 19.2946 20.4713 19.2946 17.4836C19.2946 15.1556 21.318 13.235 23.8473 13.2156H23.9316C25.3859 13.2156 26.777 13.817 27.7255 14.8258C28.6739 13.817 30.065 13.2156 31.5194 13.2156C34.0486 13.1962 36.1564 15.078 36.1564 17.406V17.4836V17.4836Z" fill="#B7B5BE"/>
</svg>
