<svg width="51" height="48" viewBox="0 0 51 48" fill="none" xmlns="http://www.w3.org/2000/svg">
<path d="M40.3715 6.15139H38.2638V2.2312H34.0483V6.15139H17.1866V2.2312H12.9711V6.15139H10.8634C9.74539 6.15139 8.67317 6.56441 7.88262 7.29959C7.09207 8.03477 6.64795 9.03188 6.64795 10.0716V37.5129C6.64795 38.5526 7.09207 39.5497 7.88262 40.2849C8.67317 41.0201 9.74539 41.4331 10.8634 41.4331H40.3715C42.69 41.4331 44.5869 39.669 44.5869 37.5129V10.0716C44.5869 7.91548 42.69 6.15139 40.3715 6.15139ZM25.6174 12.0317C29.1163 12.0317 31.9406 14.6582 31.9406 17.912C31.9406 21.1657 29.1163 23.7922 25.6174 23.7922C22.1186 23.7922 19.2943 21.1657 19.2943 17.912C19.2943 14.6582 22.1186 12.0317 25.6174 12.0317ZM38.2638 35.5528H12.9711V33.5927C12.9711 29.6725 21.402 27.5164 25.6174 27.5164C29.8329 27.5164 38.2638 29.6725 38.2638 33.5927V35.5528Z" fill="#C4C4C4"/>
</svg>
