<svg width="51" height="46" viewBox="0 0 51 46" fill="none" xmlns="http://www.w3.org/2000/svg">
<path d="M20.4018 38.271C20.9541 38.271 21.4018 37.8232 21.4018 37.271V27.7897C21.4018 27.2374 21.8495 26.7897 22.4018 26.7897H28.8327C29.385 26.7897 29.8327 27.2374 29.8327 27.7897V37.271C29.8327 37.8232 30.2804 38.271 30.8327 38.271H39.3713C39.9236 38.271 40.3713 37.8232 40.3713 37.271V23.9626C40.3713 23.4103 40.819 22.9626 41.3713 22.9626H43.8902C44.8303 22.9626 45.2509 21.783 44.5229 21.1882L26.25 6.2576C25.8818 5.95676 25.3527 5.95676 24.9845 6.2576L6.71162 21.1882C5.98362 21.783 6.40424 22.9626 7.34435 22.9626H9.86321C10.4155 22.9626 10.8632 23.4103 10.8632 23.9626V37.271C10.8632 37.8232 11.3109 38.271 11.8632 38.271H20.4018Z" fill="#9F9DA9"/>
</svg>
