<svg width="51" height="47" viewBox="0 0 51 47" xmlns="http://www.w3.org/2000/svg">
<path d="M42.479 11.9637H26.006C25.756 11.9637 25.515 11.87 25.3306 11.7011L21.6885 8.36524C21.5041 8.19634 21.2631 8.10266 21.0131 8.10266H8.75548C6.41591 8.10266 4.54004 9.82083 4.54004 11.9637V35.1301C4.54004 36.1541 4.98416 37.1361 5.77471 37.8602C6.56526 38.5843 7.63748 38.9911 8.75548 38.9911H42.479C44.7975 38.9911 46.6945 37.2536 46.6945 35.1301V15.8248C46.6945 13.7012 44.7975 11.9637 42.479 11.9637ZM39.1488 26.4427L32.6253 32.5575C32.2403 32.9185 31.641 32.918 31.2565 32.5565L24.7531 26.4427C23.9732 25.7091 23.5095 24.7438 23.5095 23.6434C23.5095 21.4619 25.4065 19.6858 27.725 19.6858C28.8632 19.6858 29.9381 20.1299 30.7179 20.8635L31.2588 21.3674C31.6428 21.7252 32.2381 21.7252 32.6221 21.3675L33.184 20.8441C33.9428 20.1299 35.0177 19.6858 36.1559 19.6858C38.4744 19.6858 40.3713 21.4619 40.3713 23.6434C40.3713 24.7245 39.9076 25.7284 39.1488 26.4427Z"/>
</svg>
