<svg width="52" height="50" viewBox="0 0 52 50" fill="none" xmlns="http://www.w3.org/2000/svg">
<path d="M10.9497 45.2031H40.6997C43.0436 45.2031 44.9497 43.3717 44.9497 41.1198V12.5364C44.9497 10.2845 43.0436 8.45308 40.6997 8.45308H36.4497V4.36975H32.1997V8.45308H19.4497V4.36975H15.1997V8.45308H10.9497C8.60583 8.45308 6.69971 10.2845 6.69971 12.5364V41.1198C6.69971 43.3717 8.60583 45.2031 10.9497 45.2031ZM23.6997 37.8817L15.8223 30.3132L18.8271 27.4263L23.6997 32.1078L32.8223 23.343L35.8271 26.2299L23.6997 37.8817ZM10.9497 14.5781H40.6997V18.6614H10.9497V14.5781Z" fill="#C4C4C4"/>
</svg>
