<svg width="54" height="63" viewBox="0 0 54 63" fill="none" xmlns="http://www.w3.org/2000/svg">
<rect width="54" height="63" fill="#1A1929"/>
<rect x="-491" y="-398" width="1902" height="975" fill="#070609"/>
<mask id="path-2-inside-1" fill="white">
<path d="M48.6616 19.6933C41.8613 11.2442 36.377 10.499 32.9068 8.48431C30.4235 7.0414 28.1329 4.50248 25.2196 0.963501C25.0241 2.87641 24.8229 4.7835 23.5936 6.19251C21.1781 8.9669 17.8976 10.6705 15.2236 12.0126C8.42143 15.4198 0.596924 23.3573 0.596924 36.0422C0.596924 42.185 2.92473 48.7969 7.32095 53.8912C11.9937 59.313 18.9895 63.0245 27.3004 62.9828C34.7263 62.945 40.8247 60.4769 45.4059 56.4485C50.7682 51.737 54 44.816 54 36.0422C54 29.5786 52.1061 23.9804 48.6616 19.6933ZM41.1432 57.3507C37.8647 60.1367 28.9883 61.7269 24.7656 58.1792C24.3499 57.8294 24.3356 57.3032 24.6092 56.998C24.8143 56.7683 24.9926 56.6627 25.2386 56.5183C25.5457 56.339 25.9405 56.4107 26.2075 56.6578C27.8707 58.2229 35.7343 59.535 40.4595 56.3022C40.633 56.183 40.8581 56.1035 41.0498 56.1898C41.1928 56.2508 41.2805 56.3303 41.2996 56.497C41.3292 56.7644 41.3473 57.1734 41.1432 57.3507ZM30.0907 53.1305C30.1021 52.7293 30.2118 52.4802 30.4931 52.1983C32.1095 50.5576 33.8308 49.5867 35.7619 49.6341C38.8459 49.7136 38.9785 50.452 39.8759 52.2864C40.0551 52.6605 39.9502 52.9822 39.8329 53.1712C39.77 53.2749 39.4153 53.6199 39.297 53.6199C38.9995 53.6199 38.8908 53.5104 38.7696 53.2032C38.0344 51.3329 36.9444 51.3251 35.5664 51.3251C33.4484 51.3232 32.5253 52.3746 31.2732 53.429C30.9604 53.6916 30.6676 53.8883 30.433 53.6906C30.2452 53.5259 30.0869 53.3001 30.0907 53.1305ZM46.639 52.4521C43.6923 52.2196 40.407 45.317 37.1656 45.3732C32.8972 45.4469 26.6433 52.7555 19.6208 52.6508C16.0371 52.5956 12.1778 51.266 12.0605 45.7104C11.9632 41.0832 16.4042 36.2719 22.0459 36.4076C29.5424 36.5868 33.2358 43.2607 36.9854 43.2849C40.6607 43.3111 44.9816 37.4716 48.6931 37.3795C50.67 37.332 52.1967 39.2721 52.3436 41.9738C52.5658 46.0273 50.0348 52.7177 46.639 52.4521Z"/>
</mask>
<path d="M48.6616 19.6933C41.8613 11.2442 36.377 10.499 32.9068 8.48431C30.4235 7.0414 28.1329 4.50248 25.2196 0.963501C25.0241 2.87641 24.8229 4.7835 23.5936 6.19251C21.1781 8.9669 17.8976 10.6705 15.2236 12.0126C8.42143 15.4198 0.596924 23.3573 0.596924 36.0422C0.596924 42.185 2.92473 48.7969 7.32095 53.8912C11.9937 59.313 18.9895 63.0245 27.3004 62.9828C34.7263 62.945 40.8247 60.4769 45.4059 56.4485C50.7682 51.737 54 44.816 54 36.0422C54 29.5786 52.1061 23.9804 48.6616 19.6933ZM41.1432 57.3507C37.8647 60.1367 28.9883 61.7269 24.7656 58.1792C24.3499 57.8294 24.3356 57.3032 24.6092 56.998C24.8143 56.7683 24.9926 56.6627 25.2386 56.5183C25.5457 56.339 25.9405 56.4107 26.2075 56.6578C27.8707 58.2229 35.7343 59.535 40.4595 56.3022C40.633 56.183 40.8581 56.1035 41.0498 56.1898C41.1928 56.2508 41.2805 56.3303 41.2996 56.497C41.3292 56.7644 41.3473 57.1734 41.1432 57.3507ZM30.0907 53.1305C30.1021 52.7293 30.2118 52.4802 30.4931 52.1983C32.1095 50.5576 33.8308 49.5867 35.7619 49.6341C38.8459 49.7136 38.9785 50.452 39.8759 52.2864C40.0551 52.6605 39.9502 52.9822 39.8329 53.1712C39.77 53.2749 39.4153 53.6199 39.297 53.6199C38.9995 53.6199 38.8908 53.5104 38.7696 53.2032C38.0344 51.3329 36.9444 51.3251 35.5664 51.3251C33.4484 51.3232 32.5253 52.3746 31.2732 53.429C30.9604 53.6916 30.6676 53.8883 30.433 53.6906C30.2452 53.5259 30.0869 53.3001 30.0907 53.1305ZM46.639 52.4521C43.6923 52.2196 40.407 45.317 37.1656 45.3732C32.8972 45.4469 26.6433 52.7555 19.6208 52.6508C16.0371 52.5956 12.1778 51.266 12.0605 45.7104C11.9632 41.0832 16.4042 36.2719 22.0459 36.4076C29.5424 36.5868 33.2358 43.2607 36.9854 43.2849C40.6607 43.3111 44.9816 37.4716 48.6931 37.3795C50.67 37.332 52.1967 39.2721 52.3436 41.9738C52.5658 46.0273 50.0348 52.7177 46.639 52.4521Z" stroke="#F3D1D4" stroke-opacity="0.3" stroke-width="2" mask="url(#path-2-inside-1)"/>
</svg>
