<svg width="47" height="68" viewBox="0 0 47 68" fill="none" xmlns="http://www.w3.org/2000/svg">
<rect width="47" height="68" fill="#1A1929"/>
<rect x="-152" y="-607" width="1902" height="975" fill="#070609"/>
<mask id="path-2-inside-1" fill="white">
<path d="M33.8733 41.392C35.0686 40.5262 36.7273 39.7768 36.7273 39.7768C36.7273 39.7768 32.0072 40.6813 27.3116 41.0948C21.567 41.5987 15.3956 41.7021 12.2976 41.2628C4.96752 40.229 16.3225 37.3734 16.3225 37.3734C16.3225 37.3734 11.9195 37.0633 6.49208 39.8285C0.0889031 43.1106 22.3476 44.6095 33.8733 41.392ZM23.4575 37.2442C21.1401 31.7267 13.3221 26.8811 23.4575 18.4045C36.1053 7.83472 29.6167 0.960449 29.6167 0.960449C32.239 11.8792 20.3961 15.1871 16.1151 21.9709C13.2002 26.6097 17.5421 31.5845 23.4575 37.2442ZM37.4347 14.4764C37.4469 14.4764 16.0664 20.136 26.2749 32.5924C29.2874 36.2621 25.4821 39.57 25.4821 39.57C25.4821 39.57 33.1293 35.3835 29.6167 30.1502C26.3358 25.2659 23.8234 22.8366 37.4347 14.4764ZM36.6907 49.4292C36.6297 49.5843 36.4468 49.7522 36.4468 49.7652C52.0949 45.4106 46.3382 34.4014 38.8617 37.1925C38.2031 37.438 37.8616 38.0065 37.8616 38.0065C37.8616 38.0065 38.2762 37.8256 39.2032 37.6189C42.9841 36.779 48.4116 42.9813 36.6907 49.4292ZM42.4475 57.4793C42.4475 57.4793 44.216 59.017 40.5082 60.2187C33.4464 62.48 11.139 63.1648 4.94312 60.3091C2.71116 59.2883 6.89457 57.854 8.21179 57.5569C9.57781 57.2467 10.3706 57.2984 10.3706 57.2984C7.89468 55.4506 -5.64347 60.9294 3.49174 62.4929C28.3971 66.7828 48.9116 60.5676 42.4475 57.4793ZM15.176 52.1298C5.57734 54.9725 21.0182 60.8389 33.2391 55.2956C31.2389 54.4686 29.7997 53.5124 29.7997 53.5124C24.3478 54.6107 21.8231 54.6883 16.8713 54.0939C12.7855 53.6029 15.176 52.1298 15.176 52.1298ZM37.1054 64.6896C27.5067 66.6019 15.6639 66.3823 8.65087 65.1547C8.65087 65.1418 10.0901 66.4081 17.4812 66.9121C28.7264 67.6744 45.9967 66.4856 46.3991 60.8519C46.3991 60.8519 45.6186 62.9839 37.1054 64.6896ZM31.7877 46.5735C24.5673 48.0466 20.3839 48.0078 15.1028 47.4264C11.017 46.9741 13.688 44.8808 13.688 44.8808C3.10145 48.6022 19.5668 52.8146 34.3612 48.2275C32.7878 47.646 31.7877 46.5735 31.7877 46.5735Z"/>
</mask>
<path d="M33.8733 41.392C35.0686 40.5262 36.7273 39.7768 36.7273 39.7768C36.7273 39.7768 32.0072 40.6813 27.3116 41.0948C21.567 41.5987 15.3956 41.7021 12.2976 41.2628C4.96752 40.229 16.3225 37.3734 16.3225 37.3734C16.3225 37.3734 11.9195 37.0633 6.49208 39.8285C0.0889031 43.1106 22.3476 44.6095 33.8733 41.392ZM23.4575 37.2442C21.1401 31.7267 13.3221 26.8811 23.4575 18.4045C36.1053 7.83472 29.6167 0.960449 29.6167 0.960449C32.239 11.8792 20.3961 15.1871 16.1151 21.9709C13.2002 26.6097 17.5421 31.5845 23.4575 37.2442ZM37.4347 14.4764C37.4469 14.4764 16.0664 20.136 26.2749 32.5924C29.2874 36.2621 25.4821 39.57 25.4821 39.57C25.4821 39.57 33.1293 35.3835 29.6167 30.1502C26.3358 25.2659 23.8234 22.8366 37.4347 14.4764ZM36.6907 49.4292C36.6297 49.5843 36.4468 49.7522 36.4468 49.7652C52.0949 45.4106 46.3382 34.4014 38.8617 37.1925C38.2031 37.438 37.8616 38.0065 37.8616 38.0065C37.8616 38.0065 38.2762 37.8256 39.2032 37.6189C42.9841 36.779 48.4116 42.9813 36.6907 49.4292ZM42.4475 57.4793C42.4475 57.4793 44.216 59.017 40.5082 60.2187C33.4464 62.48 11.139 63.1648 4.94312 60.3091C2.71116 59.2883 6.89457 57.854 8.21179 57.5569C9.57781 57.2467 10.3706 57.2984 10.3706 57.2984C7.89468 55.4506 -5.64347 60.9294 3.49174 62.4929C28.3971 66.7828 48.9116 60.5676 42.4475 57.4793ZM15.176 52.1298C5.57734 54.9725 21.0182 60.8389 33.2391 55.2956C31.2389 54.4686 29.7997 53.5124 29.7997 53.5124C24.3478 54.6107 21.8231 54.6883 16.8713 54.0939C12.7855 53.6029 15.176 52.1298 15.176 52.1298ZM37.1054 64.6896C27.5067 66.6019 15.6639 66.3823 8.65087 65.1547C8.65087 65.1418 10.0901 66.4081 17.4812 66.9121C28.7264 67.6744 45.9967 66.4856 46.3991 60.8519C46.3991 60.8519 45.6186 62.9839 37.1054 64.6896ZM31.7877 46.5735C24.5673 48.0466 20.3839 48.0078 15.1028 47.4264C11.017 46.9741 13.688 44.8808 13.688 44.8808C3.10145 48.6022 19.5668 52.8146 34.3612 48.2275C32.7878 47.646 31.7877 46.5735 31.7877 46.5735Z" stroke="#F3D1D4" stroke-opacity="0.3" stroke-width="2" mask="url(#path-2-inside-1)"/>
</svg>
