<svg width="48" height="50" viewBox="0 0 48 50" fill="none" xmlns="http://www.w3.org/2000/svg">
<path d="M46.658 18.6364L46.1716 18.7522C47.2819 23.4172 47.3229 26.8657 46.1817 30.4428L46.1814 30.4437C45.6142 32.2324 45.0512 33.6412 44.2649 34.6048C43.5077 35.5328 42.531 36.063 41.0467 36.063H24.213H23.713V36.563V38.0605V38.5605H24.213H34.925V42.5422C34.925 45.5767 32.4541 47.1964 29.6688 48.0428C25.5158 49.3001 22.2025 49.1068 18.7379 48.0434C15.8304 47.1465 13.4799 45.3888 13.4799 42.5422V31.3326C13.4799 28.3496 15.8307 25.8534 18.5912 25.8534H29.8137C33.8562 25.8534 37.333 22.1897 37.333 17.8876V13.1682H41.0467C42.5269 13.1682 43.5891 13.7395 44.3911 14.6974C45.2115 15.6772 45.7743 17.0815 46.1716 18.7521L46.658 18.6364ZM27.9057 43.2757V43.2799C27.9057 44.7605 29.0577 46.0263 30.5178 46.0263C31.9883 46.0263 33.1299 44.7715 33.1299 43.2799C33.1299 41.7978 31.9868 40.5446 30.5178 40.5446C29.0587 40.5446 27.9182 41.7865 27.9057 43.2757ZM18.1675 1.05829L18.1678 1.05824C21.4798 0.441938 25.5072 0.408379 29.2127 1.0482C32.0808 1.55647 34.4101 3.78385 34.4101 6.67801V17.8986C34.4101 20.9368 32.1118 23.3778 29.2988 23.3778H18.0763C13.963 23.3778 10.557 27.0495 10.557 31.1894V36.063H7.20056C5.70961 36.063 4.54841 35.5017 3.65629 34.5431C2.75207 33.5715 2.10676 32.1708 1.71941 30.4832C0.664823 25.8786 0.706065 23.1581 1.71933 18.7484L1.71946 18.7478C2.56247 15.0583 5.22453 13.1682 8.25135 13.1682H23.6981H24.1981V12.6682V11.1707V10.6707H23.6981H12.9651V6.68902C12.9651 5.01089 13.183 3.85193 13.8775 2.99767C14.5734 2.14177 15.831 1.49165 18.1675 1.05829ZM14.7602 5.93602H14.7602V5.94024C14.7602 7.4224 15.9033 8.67556 17.3723 8.67556C18.8413 8.67556 19.9844 7.4224 19.9844 5.94024C19.9844 4.45971 18.8323 3.19392 17.3723 3.19392C15.8981 3.19392 14.7727 4.45179 14.7602 5.93602Z" stroke="#F3D1D4" stroke-opacity="0.3"/>
</svg>
