<svg width="62" height="57" viewBox="0 0 62 57" fill="none" xmlns="http://www.w3.org/2000/svg">
<path d="M36.2601 28.6756C36.2601 31.5216 34.0249 33.803 31.2991 33.803C28.5733 33.803 26.3381 31.5216 26.3381 28.6756C26.3381 25.8295 28.5733 23.5481 31.2991 23.5481C34.0249 23.5481 36.2601 25.8295 36.2601 28.6756Z" stroke="#F3D1D4" stroke-opacity="0.3"/>
<path d="M49.6283 36.8048C53.0275 35.6409 55.532 34.2181 57.197 32.8002C58.8385 31.4023 59.7457 29.9356 59.7457 28.6754C59.7457 27.3847 58.8188 26.0018 57.363 24.7536C55.6589 23.2883 53.2051 21.9731 50.3084 20.9403L50.3069 20.9397C45.0956 19.1005 38.3467 18.0863 31.299 18.0863C24.2193 18.0863 17.1972 19.1452 12.0385 20.9967L12.0383 20.9967C8.93945 22.1104 6.66574 23.4387 5.15685 24.7675C3.66588 26.0806 2.85241 27.4589 2.85241 28.6754C2.85241 29.9325 3.71948 31.4006 5.30291 32.801C6.90689 34.2197 9.31999 35.6385 12.5962 36.7922L12.7622 36.3206L12.5962 36.7922C17.4111 38.4879 23.8908 39.3765 31.299 39.3765C38.2536 39.3765 44.763 38.4759 49.6283 36.8048ZM49.6283 36.8048C49.6282 36.8048 49.6281 36.8048 49.628 36.8049L49.466 36.3318L49.6284 36.8047C49.6284 36.8047 49.6283 36.8047 49.6283 36.8048ZM12.0802 38.3938L12.0795 38.3936C8.86959 37.2652 6.16802 35.7688 4.2598 34.0848L4.25932 34.0844C2.23037 32.2985 1.23071 30.4174 1.23071 28.6754C1.23071 27.0019 2.12094 25.2844 3.87973 23.6683C5.63683 22.0537 8.22352 20.5781 11.5055 19.4046L11.5059 19.4045C16.8785 17.4778 23.9117 16.3959 31.2882 16.3959C38.5347 16.3959 45.4702 17.4443 50.8101 19.3487L50.8112 19.3491C53.9358 20.4556 56.5422 21.886 58.3764 23.45C60.3707 25.1683 61.3456 26.981 61.3456 28.6754C61.3456 30.4106 60.35 32.2303 58.4088 33.9449C56.4732 35.6546 53.6463 37.2126 50.1206 38.4145L50.1201 38.4146C45.1391 40.1182 38.4524 41.0669 31.299 41.0669C23.6633 41.0669 17.0235 40.1397 12.0802 38.3938Z" stroke="#F3D1D4" stroke-opacity="0.3"/>
<path d="M16.2494 55.5535L16.2493 55.5534C14.8548 54.7223 13.8545 53.0725 13.3721 50.6865C12.8909 48.306 12.9407 45.2546 13.5913 41.7361L13.5913 41.7359C14.656 35.9619 17.2651 29.1534 20.9548 22.5635C24.5799 16.096 28.9209 10.4266 33.1884 6.60506L33.1887 6.60475C35.6824 4.36727 38.1869 2.74828 40.4185 1.9022L40.4185 1.9022C42.8553 0.978219 44.8564 1.01955 46.2631 1.85356L46.2631 1.85358C47.7124 2.71269 48.7474 4.50771 49.2203 7.1068C49.6912 9.69491 49.5876 13.0026 48.8345 16.75L48.8344 16.7504C47.7705 22.0659 45.2268 28.5068 41.6543 34.8991C37.8407 41.7094 33.7383 47.1746 29.8004 50.7239C27.2439 53.0263 24.6329 54.689 22.2734 55.5466L22.2707 55.5476C21.0406 56.0026 19.9032 56.2227 18.9087 56.2227C17.8743 56.2227 16.9868 55.9934 16.2494 55.5535ZM21.8947 22.5619L21.3805 23.4195L21.3837 23.4214L22.0947 23.8512C18.6829 30.0399 16.1544 36.6473 15.1642 42.0597C14.5529 45.38 14.5359 48.0689 14.8989 50.0745C15.2568 52.0521 16.0056 53.4693 17.0316 54.0806C17.542 54.3851 18.1807 54.5323 18.9087 54.5323C21.2546 54.5323 24.7755 53.0251 28.7508 49.4492L28.7509 49.4492C32.5811 46.0026 36.5614 40.6606 40.264 34.0538L40.2641 34.0537C43.7407 27.8462 46.2228 21.586 47.2585 16.4199L47.2586 16.4195C47.9796 12.8067 48.0353 9.86591 47.675 7.67599C47.3204 5.52045 46.5406 3.97497 45.4684 3.33673L45.4669 3.33586C44.3709 2.68851 42.7333 2.82531 40.9559 3.50068C38.8665 4.29213 36.5408 5.82449 34.2288 7.90067C30.1769 11.5334 26.0605 16.8757 22.5912 22.9759L21.8978 22.5637L21.8947 22.5619Z" stroke="#F3D1D4" stroke-opacity="0.3"/>
<path d="M33.3935 51.0693L33.3934 51.0692C29.0723 47.2367 24.6556 41.5117 20.9548 34.9214L20.9547 34.9212C17.3194 28.4549 14.7317 21.7464 13.6454 16.016L13.1541 16.1091L13.6454 16.016C13.0109 12.6692 12.8983 9.62605 13.2992 7.20081C13.7441 4.54919 14.774 2.77862 16.1949 1.93194L16.1957 1.93149C17.6357 1.07005 19.6511 1.04301 22.0647 1.91652C24.4702 2.78707 27.1969 4.52907 29.9715 7.07246L29.9718 7.07276C33.9029 10.6698 38.0495 16.1605 41.633 22.5419L42.0689 22.2971L41.633 22.5419C45.4574 29.3522 48.0096 35.7457 49.0186 41.0332L49.0186 41.0332C49.6744 44.4673 49.7762 47.6316 49.3222 50.178C48.8349 52.8964 47.752 54.7166 46.2943 55.5878L46.2921 55.5891C45.5656 56.0283 44.6897 56.2568 43.6898 56.2568C40.9143 56.2568 37.2775 54.5159 33.3935 51.0693ZM47.4552 41.3719L47.4551 41.3715C46.4624 36.2338 43.9671 30.0164 40.253 23.4086C36.766 17.202 32.7431 11.8523 28.9174 8.35299C26.2412 5.90161 23.7955 4.37906 21.7704 3.60395C19.7768 2.84087 18.0781 2.76297 17.0003 3.404C16.4443 3.73267 15.9991 4.28721 15.6562 4.97423C15.3114 5.66491 15.0546 6.5197 14.8911 7.49566L14.8909 7.49683C14.5194 9.74709 14.6357 12.5894 15.2303 15.6872C16.2871 21.2567 18.8123 27.776 22.3455 34.0658C25.8892 40.3775 30.2949 46.1096 34.4378 49.7772C36.9232 51.9806 39.1767 53.3432 41.0497 54.0235C42.8976 54.6948 44.4753 54.7347 45.512 54.1149C46.5778 53.4806 47.3748 51.9688 47.7567 49.8636C48.1443 47.7273 48.1274 44.8691 47.4552 41.3719Z" stroke="#F3D1D4" stroke-opacity="0.3"/>
</svg>
