<svg width="68" height="70" viewBox="0 0 68 70" fill="none" xmlns="http://www.w3.org/2000/svg">
<path d="M55.7961 56.1555L56.3882 57.1771L56.7098 56.0409L62.6434 35.0766L62.682 34.9405L62.6434 34.8043L56.7098 13.84L56.3882 12.7038L55.7961 13.7255L43.6461 34.6897L43.5008 34.9405L43.6461 35.1912L55.7961 56.1555ZM29.0303 54.2181L29.3123 53.9392L29.2595 54.3503L50.4512 59.8826L51.6113 60.1854L51.0101 59.1481L38.8602 38.1838L38.7157 37.9345H38.4276H14.1278H12.9303L13.7723 38.786L29.0303 54.2181ZM29.2595 15.2394L29.3123 15.6505C29.0302 15.3717 29.0302 15.3718 29.03 15.3719L29.0295 15.3724L29.0274 15.3746L29.019 15.3831L28.9857 15.4168L28.8558 15.5481L28.3627 16.0465C27.9378 16.4758 27.3309 17.0887 26.6025 17.8234C25.1458 19.2927 23.2036 21.2486 21.2616 23.1953C19.3192 25.1422 17.378 27.079 15.9228 28.5104C15.1948 29.2265 14.5906 29.814 14.1694 30.2125C13.9578 30.4127 13.797 30.5608 13.6913 30.6529C13.6904 30.6537 13.6896 30.6545 13.6887 30.6552H13.3453V31.1552C13.3453 31.22 13.3581 31.3371 13.4414 31.4517C13.5322 31.5768 13.6585 31.6333 13.7605 31.6514C13.8165 31.6614 13.8681 31.6606 13.9118 31.6552H38.4276H38.7158L38.8602 31.406L51.0101 10.4417L51.6113 9.40433L50.4512 9.70718L29.2595 15.2394ZM13.5973 30.7311C13.5927 30.7344 13.5935 30.7335 13.5988 30.73C13.5983 30.7304 13.5978 30.7308 13.5973 30.7311ZM28.5382 15.0585H28.8256L28.9703 14.8101L33.1042 7.7101L60.1118 0.61037L67.2769 27.589L63.143 34.6889L63.0015 34.932L63.1358 35.1792L66.9966 42.2837L59.8292 69.2706L32.8301 62.173L28.9775 55.0837L28.8355 54.8224H28.5382H20.5514L0.706451 34.9405L20.5514 15.0585H28.5382Z" stroke="#F3D1D4" stroke-opacity="0.3"/>
</svg>
