<svg width="44" height="44" viewBox="0 0 44 44" fill="none" xmlns="http://www.w3.org/2000/svg">
<path d="M14.0952 39.38C8.15017 36.5567 3.89596 30.7267 3.24146 23.8333H0.514404C1.4416 35.1267 10.8045 44 22.24 44L23.4399 43.945L16.5132 36.96L14.0952 39.38ZM15.7132 27.4267C15.3678 27.4267 15.0405 27.3717 14.7678 27.28C14.4769 27.17 14.2406 27.0417 14.0406 26.84C13.8406 26.6567 13.677 26.4367 13.5679 26.1617C13.4588 25.905 13.4043 25.6117 13.4043 25.3H11.0409C11.0409 25.96 11.1681 26.5467 11.4226 27.0417C11.6772 27.5367 12.0226 27.9583 12.4407 28.3067C12.8771 28.6367 13.3679 28.8933 13.9315 29.0583C14.4769 29.2417 15.0587 29.3333 15.6769 29.3333C16.3495 29.3333 16.9858 29.2417 17.5494 29.0583C18.1312 28.875 18.6403 28.6 19.0584 28.2517C19.4766 27.9033 19.822 27.4633 20.0583 26.9317C20.2947 26.4 20.4219 25.8133 20.4219 25.1533C20.4219 24.805 20.3856 24.4567 20.2947 24.1267C20.2038 23.7967 20.0765 23.485 19.8765 23.1917C19.6947 22.8983 19.4402 22.6417 19.1493 22.4033C18.8402 22.165 18.4766 21.9817 18.0403 21.835C18.4039 21.67 18.713 21.4683 18.9857 21.23C19.2584 20.9917 19.4766 20.735 19.6584 20.46C19.8402 20.185 19.9674 19.91 20.0583 19.6167C20.1492 19.3233 20.1856 19.03 20.1856 18.7367C20.1856 18.0767 20.0765 17.49 19.8583 16.9767C19.6402 16.4633 19.3311 16.0417 18.9311 15.7117C18.5675 15.3633 18.0767 15.1067 17.5313 14.9233C16.9677 14.7583 16.3495 14.6667 15.6769 14.6667C15.0224 14.6667 14.4224 14.7583 13.8588 14.96C13.3134 15.1617 12.8225 15.4367 12.4226 15.785C12.0408 16.1333 11.7317 16.5367 11.4954 17.0133C11.2772 17.49 11.1681 18.0033 11.1681 18.5717H13.5316C13.5316 18.26 13.5861 17.985 13.6952 17.7467C13.8043 17.5083 13.9497 17.2883 14.1497 17.1233C14.3497 16.9583 14.5678 16.8117 14.8406 16.72C15.1133 16.6283 15.386 16.5733 15.7132 16.5733C16.4404 16.5733 16.9858 16.7567 17.3313 17.1417C17.6767 17.5083 17.8585 18.04 17.8585 18.7183C17.8585 19.0483 17.804 19.3417 17.7131 19.6167C17.6222 19.8917 17.4585 20.1117 17.2585 20.295C17.0586 20.4783 16.804 20.625 16.5132 20.735C16.2223 20.845 15.8587 20.9 15.4587 20.9H14.0588V22.7883H15.4587C15.8587 22.7883 16.2223 22.825 16.5495 22.9167C16.8768 23.0083 17.1495 23.155 17.3676 23.3383C17.5858 23.54 17.7676 23.7783 17.8949 24.0717C18.0221 24.365 18.0767 24.7133 18.0767 25.1167C18.0767 25.8683 17.8585 26.4367 17.4404 26.8217C17.0222 27.2433 16.4404 27.4267 15.7132 27.4267ZM31.2575 16.5733C30.6757 15.9683 29.9848 15.4917 29.1849 15.1617C28.4031 14.8317 27.5123 14.6667 26.5305 14.6667H22.24V29.3333H26.4215C27.4214 29.3333 28.3486 29.1683 29.1667 28.8383C29.9848 28.5083 30.6939 28.05 31.2756 27.445C31.8574 26.84 32.3119 26.1067 32.621 25.2633C32.93 24.4017 33.0937 23.4483 33.0937 22.385V21.6517C33.0937 20.5883 32.93 19.635 32.621 18.7733C32.2937 17.9117 31.8392 17.1783 31.2575 16.5733ZM30.5484 22.3667C30.5484 23.1367 30.4575 23.815 30.2939 24.4383C30.1121 25.0433 29.8576 25.575 29.5121 25.9967C29.1667 26.4183 28.7304 26.7483 28.2213 26.9683C27.6941 27.1883 27.0941 27.2983 26.4215 27.2983H24.7671V16.72H26.5305C27.8395 16.72 28.8395 17.1417 29.5121 17.985C30.203 18.8283 30.5484 20.0383 30.5484 21.6333V22.3667ZM22.24 0L21.0401 0.055L27.9668 7.04L30.3848 4.60167C36.3298 7.44333 40.584 13.255 41.2203 20.1483H43.9474C43.0383 8.87333 33.6754 0 22.24 0Z" fill="#E59999"/>
</svg>
