<svg width="27" height="27" viewBox="0 0 27 27" fill="none" xmlns="http://www.w3.org/2000/svg">
<g clip-path="url(#clip0)">
<path d="M9.12305 18.7291C9.16992 18.6614 9.15234 18.5881 9.07031 18.5091C8.96484 18.4301 8.88281 18.4188 8.82422 18.4752C8.77734 18.5429 8.79492 18.6163 8.87695 18.6953C8.98242 18.7743 9.06445 18.7856 9.12305 18.7291ZM8.63086 18.0351C8.57227 17.9561 8.50195 17.9336 8.41992 17.9674C8.34961 18.0126 8.34961 18.0803 8.41992 18.1706C8.50195 18.2608 8.57227 18.289 8.63086 18.2552C8.70117 18.21 8.70117 18.1367 8.63086 18.0351ZM7.91016 17.3581C7.93359 17.3129 7.9043 17.2678 7.82227 17.2226C7.74023 17.2001 7.69336 17.2114 7.68164 17.2565C7.64648 17.3129 7.66992 17.3581 7.75195 17.3919C7.8457 17.4145 7.89844 17.4032 7.91016 17.3581ZM8.2793 17.7474C8.30273 17.7361 8.31152 17.7107 8.30566 17.6712C8.2998 17.6317 8.2793 17.6007 8.24414 17.5781C8.17383 17.4991 8.11523 17.4822 8.06836 17.5273C8.02148 17.5725 8.02734 17.6345 8.08594 17.7135C8.15625 17.7812 8.2207 17.7925 8.2793 17.7474ZM9.79102 19.0169C9.81445 18.9379 9.76172 18.8758 9.63281 18.8307C9.52734 18.7969 9.45117 18.8194 9.4043 18.8984C9.38086 18.9774 9.43359 19.0395 9.5625 19.0846C9.66797 19.1185 9.74414 19.0959 9.79102 19.0169ZM10.5293 19.0677C10.5293 18.9774 10.459 18.9323 10.3184 18.9323C10.2012 18.9323 10.1426 18.9774 10.1426 19.0677C10.1426 19.158 10.207 19.2031 10.3359 19.2031C10.4648 19.2031 10.5293 19.158 10.5293 19.0677ZM11.2148 18.9492C11.1914 18.8702 11.1152 18.842 10.9863 18.8646C10.8574 18.8871 10.8047 18.9379 10.8281 19.0169C10.8516 19.1072 10.9219 19.141 11.0391 19.1185C11.1562 19.0959 11.2148 19.0395 11.2148 18.9492ZM22.5 13.5833C22.5 11.191 21.6211 9.14842 19.8633 7.45571C18.1055 5.763 15.9844 4.91665 13.5 4.91665C11.0156 4.91665 8.89453 5.763 7.13672 7.45571C5.37891 9.14842 4.5 11.191 4.5 13.5833C4.5 15.4679 5.07422 17.1634 6.22266 18.6699C7.37109 20.1764 8.84766 21.2231 10.6523 21.8099C10.8633 21.8437 11.0186 21.8155 11.1182 21.7252C11.2178 21.635 11.2676 21.5221 11.2676 21.3867C11.2676 20.7999 11.2617 20.2639 11.25 19.7786C11.1797 19.7899 11.0889 19.804 10.9775 19.8209C10.8662 19.8379 10.6582 19.8492 10.3535 19.8548C10.0488 19.8604 9.76758 19.8379 9.50977 19.7871C9.25195 19.7363 8.99707 19.6235 8.74512 19.4485C8.49316 19.2736 8.32031 19.0395 8.22656 18.7461C7.95703 18.0803 7.62305 17.6627 7.22461 17.4935C7.20117 17.4822 7.1748 17.4624 7.14551 17.4342L7.00488 17.2988L6.88184 17.138L6.95215 17.011L7.29492 16.9518C7.36523 16.9518 7.45312 16.9631 7.55859 16.9857C7.66406 17.0082 7.83984 17.0957 8.08594 17.248C8.33203 17.4004 8.52539 17.6007 8.66602 17.8489C8.85352 18.1649 9.07324 18.4019 9.3252 18.5599C9.57715 18.7179 9.83203 18.7969 10.0898 18.7969C10.3477 18.7969 10.5703 18.7771 10.7578 18.7376C10.9453 18.6981 11.1211 18.6445 11.2852 18.5768C11.3672 18.0464 11.5605 17.6571 11.8652 17.4088C11.291 17.3411 10.7871 17.2367 10.3535 17.0957C9.91992 16.9546 9.49219 16.7346 9.07031 16.4355C8.64844 16.1365 8.32324 15.7077 8.09473 15.1491C7.86621 14.5905 7.75195 13.9162 7.75195 13.1263C7.75195 12.2348 8.0625 11.4618 8.68359 10.8073C8.40234 10.1076 8.43164 9.34026 8.77148 8.50519C8.99414 8.43748 9.31348 8.4798 9.72949 8.63214C10.1455 8.78449 10.5 8.95093 10.793 9.13149L11.25 9.40232C11.9297 9.21048 12.6797 9.11456 13.5 9.11456C14.3203 9.11456 15.0703 9.21048 15.75 9.40232C15.8789 9.32333 16.0459 9.22177 16.251 9.09764C16.4561 8.9735 16.7812 8.8268 17.2266 8.65753C17.6719 8.48826 18.0059 8.43748 18.2285 8.50519C18.5684 9.34026 18.5977 10.1076 18.3164 10.8073C18.9375 11.4618 19.248 12.2348 19.248 13.1263C19.248 13.7695 19.166 14.3366 19.002 14.8275C18.8379 15.3183 18.6299 15.7133 18.3779 16.0124C18.126 16.3114 17.8125 16.5625 17.4375 16.7656C17.0625 16.9687 16.6963 17.1154 16.3389 17.2057C15.9814 17.296 15.5801 17.3637 15.1348 17.4088C15.5449 17.7587 15.75 18.2947 15.75 19.0169C15.75 19.4683 15.7471 19.9705 15.7412 20.5234C15.7354 21.0764 15.7324 21.3641 15.7324 21.3867C15.7324 21.5221 15.7822 21.635 15.8818 21.7252C15.9814 21.8155 16.1367 21.8437 16.3477 21.8099C18.1523 21.2231 19.6289 20.1764 20.7773 18.6699C21.9258 17.1634 22.5 15.4679 22.5 13.5833ZM27 5.45831V21.7083C27 23.0512 26.5049 24.1994 25.5146 25.153C24.5244 26.1065 23.332 26.5833 21.9375 26.5833H5.0625C3.66797 26.5833 2.47559 26.1065 1.48535 25.153C0.495117 24.1994 0 23.0512 0 21.7083V5.45831C0 4.11543 0.495117 2.96721 1.48535 2.01365C2.47559 1.06009 3.66797 0.583313 5.0625 0.583313H21.9375C23.332 0.583313 24.5244 1.06009 25.5146 2.01365C26.5049 2.96721 27 4.11543 27 5.45831Z" fill="#8CF2D9"/>
</g>
<defs>
<clipPath id="clip0">
<rect y="0.583313" width="27" height="26" fill="white"/>
</clipPath>
</defs>
</svg>
