<?xml version="1.0" encoding="utf-8"?>
<!-- Generator: Adobe Illustrator 19.0.0, SVG Export Plug-In . SVG Version: 6.00 Build 0)  -->
<svg version="1.1" id="Layer_2" xmlns="http://www.w3.org/2000/svg" xmlns:xlink="http://www.w3.org/1999/xlink" x="0px" y="0px"
	 viewBox="-148 257 315 279" style="enable-background:new -148 257 315 279;" xml:space="preserve">
<style type="text/css">
	.st0{fill:url(#XMLID_2_);}
	.st1{fill:url(#XMLID_3_);}
	.st2{fill:url(#XMLID_4_);}
	.st3{fill:#C42126;}
</style>
<linearGradient id="XMLID_2_" gradientUnits="userSpaceOnUse" x1="122.099" y1="465.7049" x2="24.476" y2="519.8183" gradientTransform="matrix(1 0 0 1 0 2.4)">
	<stop  offset="0.176" style="stop-color:#410000"/>
	<stop  offset="0.2873" style="stop-color:#580011"/>
	<stop  offset="0.452" style="stop-color:#731922"/>
	<stop  offset="0.7959" style="stop-color:#C42126"/>
</linearGradient>
<polyline id="XMLID_1275_" class="st0" points="115.5,456.2 78.6,539.4 34,539.4 78.3,445.2 "/>
<linearGradient id="XMLID_3_" gradientUnits="userSpaceOnUse" x1="65.743" y1="413.774" x2="-80.2482" y2="494.6982" gradientTransform="matrix(1 0 0 1 0 2.4)">
	<stop  offset="1.600985e-002" style="stop-color:#410000"/>
	<stop  offset="0.1109" style="stop-color:#580011"/>
	<stop  offset="0.2513" style="stop-color:#731922"/>
	<stop  offset="0.5445" style="stop-color:#C42126"/>
</linearGradient>
<polyline id="XMLID_1274_" class="st1" points="51,405.2 -13,539.4 -56.8,539.4 32,355.3 "/>
<linearGradient id="XMLID_4_" gradientUnits="userSpaceOnUse" x1="51.8963" y1="333.6052" x2="-181.2291" y2="462.8287" gradientTransform="matrix(1 0 0 1 0 2.4)">
	<stop  offset="1.600985e-002" style="stop-color:#410000"/>
	<stop  offset="0.1135" style="stop-color:#580011"/>
	<stop  offset="0.2577" style="stop-color:#731922"/>
	<stop  offset="0.5588" style="stop-color:#C42126"/>
</linearGradient>
<polyline id="XMLID_1273_" class="st2" points="19.3,277.2 -98.5,536.4 -142,536 -16.7,257 19.3,277.2 "/>
<path id="XMLID_1270_" class="st3" d="M15.5,257l43.4,83.1c13.5,22.7,2.5,45.1-8,65.1l0,0L-16.7,257H15.5z"/>
<path id="XMLID_66_" class="st3" d="M78.3,377.8c-10.4,19.7-22.1,43.1-11.8,62.9l52.6,98.8H163"/>
</svg>
