<svg width="28" height="29" viewBox="0 0 28 29" fill="none" xmlns="http://www.w3.org/2000/svg">
<path d="M8.12 0H19.88C24.36 0 28 3.49877 28 7.80496V19.1087C28 21.1787 27.1445 23.1639 25.6217 24.6276C24.0989 26.0913 22.0336 26.9136 19.88 26.9136H8.12C3.64 26.9136 0 23.4149 0 19.1087V7.80496C0 5.73495 0.855498 3.74973 2.37829 2.28602C3.90109 0.822306 5.96644 0 8.12 0ZM7.84 2.69136C6.50331 2.69136 5.22136 3.20176 4.27618 4.11027C3.331 5.01878 2.8 6.25099 2.8 7.53582V19.3778C2.8 22.0557 5.054 24.2223 7.84 24.2223H20.16C21.4967 24.2223 22.7786 23.7119 23.7238 22.8034C24.669 21.8949 25.2 20.6627 25.2 19.3778V7.53582C25.2 4.85791 22.946 2.69136 20.16 2.69136H7.84ZM21.35 4.70989C21.8141 4.70989 22.2592 4.88711 22.5874 5.20256C22.9156 5.51802 23.1 5.94587 23.1 6.39199C23.1 6.83811 22.9156 7.26596 22.5874 7.58142C22.2592 7.89687 21.8141 8.07409 21.35 8.07409C20.8859 8.07409 20.4407 7.89687 20.1126 7.58142C19.7844 7.26596 19.6 6.83811 19.6 6.39199C19.6 5.94587 19.7844 5.51802 20.1126 5.20256C20.4407 4.88711 20.8859 4.70989 21.35 4.70989ZM14 6.72841C15.8565 6.72841 17.637 7.4373 18.9497 8.69912C20.2625 9.96094 21 11.6723 21 13.4568C21 15.2413 20.2625 16.9527 18.9497 18.2145C17.637 19.4764 15.8565 20.1852 14 20.1852C12.1435 20.1852 10.363 19.4764 9.05025 18.2145C7.7375 16.9527 7 15.2413 7 13.4568C7 11.6723 7.7375 9.96094 9.05025 8.69912C10.363 7.4373 12.1435 6.72841 14 6.72841ZM14 9.41978C12.8861 9.41978 11.8178 9.84511 11.0302 10.6022C10.2425 11.3593 9.8 12.3861 9.8 13.4568C9.8 14.5275 10.2425 15.5544 11.0302 16.3114C11.8178 17.0685 12.8861 17.4939 14 17.4939C15.1139 17.4939 16.1822 17.0685 16.9698 16.3114C17.7575 15.5544 18.2 14.5275 18.2 13.4568C18.2 12.3861 17.7575 11.3593 16.9698 10.6022C16.1822 9.84511 15.1139 9.41978 14 9.41978Z" fill="#8CF2D9"/>
</svg>
